/* XPM */
static char *death4[] = {
/* columns rows colors chars-per-pixel */
"43 69 54 1 ",
"  c black",
". c #131313",
"X c #1B1B1B",
"o c #2F1B0B",
"O c #2B230F",
"+ c #332B13",
"@ c #3F2B1B",
"# c #430000",
"$ c #470000",
"% c #4F0000",
"& c #530707",
"* c #5B0000",
"= c #5B0707",
"- c #5F0707",
"; c #670000",
": c #670B0B",
"> c #6B0F0F",
", c #730000",
"< c #7F0000",
"1 c #731313",
"2 c #771717",
"3 c #7F1B1B",
"4 c #4B371B",
"5 c #732B00",
"6 c #5F4323",
"7 c #6B4727",
"8 c #774F2B",
"9 c #7F532F",
"0 c #6F6F6F",
"q c #8B0000",
"w c #9B0000",
"e c #831F1F",
"r c #A70000",
"t c #B30000",
"y c #BF0000",
"u c #8B2323",
"i c #8F2B2B",
"p c #972F2F",
"a c #9B3333",
"s c #A33B3B",
"d c #A73F3F",
"f c #CB0000",
"g c #D70000",
"h c red",
"j c #FF1F1F",
"k c #874307",
"l c #875733",
"z c #9B633B",
"x c #AF4747",
"c c #B34F4F",
"v c #BF7B4B",
"b c #FF5F5F",
"n c #9F9F9F",
"m c #FF9B9B",
/* pixels */
"                                           ",
"                                           ",
"                                           ",
"                                           ",
"                                           ",
"                                           ",
"                                           ",
"                                           ",
"                                           ",
"                                           ",
"                                           ",
"                                           ",
"                                           ",
"                                           ",
"                                           ",
"                                           ",
"                                           ",
"                                           ",
"                                           ",
"                                           ",
"                                           ",
"                                           ",
"                                           ",
"                                           ",
"                                           ",
"                                         q ",
"                                           ",
"                                     n     ",
"                                     6     ",
"q  q                             q   *z    ",
" q                                  vw,*   ",
"                                 @  w* <*  ",
"                                y;   ** <w ",
"  q  q                          h,# **<,;; ",
"                                rt**<*5q;* ",
"*           q                   ,tq%,9;,* *",
" *   *#                         #q#*wf,0%q*",
" ;* q;,                          yq;#bm;% ,",
"***< **                          yq;#jb*  *",
",* **                           *   ,,  r ,",
"  *                              %5k   ,   ",
"*,                                <wddd2#q,",
"*  *                              ;;qccx2#q",
"* <<                                %%%3d2,",
"  *                                   #d3pq",
" o  d                                55%dd3",
"    $=                               %%#%%e",
"    %d                                %%%%%",
";# #2$                               #3#<,#",
";  #-d                               #####X",
"* #>$>                          w,   >#w++;",
"*##%$>                          *,%  quu4X*",
"w;#%$              cp:           q,% >>fu* ",
"$#@#-              su##t        %q%% &&&>4 ",
";*#->#           cyi2wygt        %% *&&&u86",
"$;*&#;          cpr+ygyjg        q,%%&&#%6l",
"$###;;,,        p:;erwe,ti*     qd#%%##%+47",
"%**%qq;;,t,     ####q##%<;##   u;u;a%q%%%+4",
"********rytw*   .%,2q>:%*<#*  ;&a%a,w%q%%%;",
"*;q*;*#w%,wtt,  <%:2<>:%###g*,#;% *%q%##%%%",
"w,**;#wr;%#;wq<,*%*%####%,gww;<*   %t<#####",
"Ow,,.#3q.q&%;wyq,#%%#####qq&fw*,*< <qtr*<*#",
"yi%;*#,####*%%<t<#&%%%####.%w=w$#%<rqtr<w#%",
"i&#%#######%%%*q<;#%;*%##,%<##$$#%*q<rrw<%;",
";#.<.##.<.;%*####;%*,;%####,###=#%#;*q<<w, ",
"a<a01<#.<<XX%.X%%%%*,,;%,w,#.%%#.%###;*%*# ",
"ue2aiw*%%%%#..<#.;%**;,;;,,,%$%%  4+####4  ",
":::=&#,;;%%%%%%;;$,,*<%,,;>.#$O            ",
":::=<          <,#%t% ##t;##$              "
};
