/* XPM */
static char *death5[] = {
/* columns rows colors chars-per-pixel */
"43 69 54 1 ",
"  c black",
". c #131313",
"X c #1B1B1B",
"o c #2F1B0B",
"O c #332B13",
"+ c #3F2F17",
"@ c #3F2B1B",
"# c #430000",
"$ c #470000",
"% c #4F0000",
"& c #530707",
"* c #5B0000",
"= c #5B0707",
"- c #5F0707",
"; c #670000",
": c #670B0B",
"> c #6B0F0F",
", c #730000",
"< c #7F0000",
"1 c #731313",
"2 c #771717",
"3 c #7F1B1B",
"4 c #4B371B",
"5 c #533F1F",
"6 c #732B00",
"7 c #5F4323",
"8 c #6B4727",
"9 c #774F2B",
"0 c #7F532F",
"q c #6F6F6F",
"w c #8B0000",
"e c #9B0000",
"r c #831F1F",
"t c #A70000",
"y c #B30000",
"u c #BF0000",
"i c #8B2323",
"p c #8F2B2B",
"a c #972F2F",
"s c #9B3333",
"d c #A33B3B",
"f c #A73F3F",
"g c #CB0000",
"h c #D70000",
"j c #E30000",
"k c red",
"l c #FF1F1F",
"z c #8F5F37",
"x c #9B633B",
"c c #B34F4F",
"v c #AB6F43",
"b c #BF7B4B",
"n c #FF5F5F",
"m c #FF9B9B",
/* pixels */
"                                           ",
"                                           ",
"                                           ",
"                                           ",
"                                           ",
"                                           ",
"                                           ",
"                                           ",
"                                           ",
"                                           ",
"                                           ",
"                                           ",
"                                           ",
"                                           ",
"                                           ",
"                                           ",
"                                           ",
"                                           ",
"                                           ",
"                                           ",
"                                           ",
"                                           ",
"                                           ",
"                                           ",
"                                           ",
"                                           ",
"                                           ",
"                                           ",
"                                           ",
"                                           ",
"                                           ",
"                                           ",
"                                           ",
"                                           ",
"                                      w    ",
"  w                                        ",
"                                           ",
"     w                                  7 w",
" w                                  w   *x ",
"       w                               be,*",
"xkj     t%                          @  e* <",
"#e#me --w                          u;   **w",
":11e*;@xt                          k,# **<,",
"  :::**                            ty**<*6w",
"*w;#w                              ,yw%,0;,",
"gt,# ;                             #w#*eg,q",
" ,w,% *                             uw;#nm;",
"%,<%,%*                           w%uw;#ln*",
"%%*,  *                            * uv,,%3",
"  #  w;#                            z7z89-i",
"   *gt,#                            v7* 79#",
" ;pytw%%            ca:               x<8;%",
"0; w%;%f            di##y               <##",
"*w<*%;#$f         cup2euhy         #%%%%ee;",
"x%f*,*#r,        catOuhulh     fwfw%<,#<,%q",
"w;<**h%a,y,      a:;rter,t##wi&i;i;%##X%,%8",
"<,#%>h>&;uye**   ####w##%<##;#;&s%s#OO;,#* ",
"tte%tuyw*tuyey,  %$,2w>:%*#%e##;%###4Xa>ii ",
"%;#e%,,*e%,eyew<,,y:2<>:%#,<#*<,w###egaw>g7",
"3#e,wyywt;%#;;euw#,*%####%###h*,*<#<egw>&&i",
"#-%##***w.w&%;euw#&%%######,hee;#%<tww>&&&>",
"y;####%%%%*#..;w<;#w%%%####ww&ge#%*wy<#####",
";;#*<.;%*###.<$##;w;%;*%#e,#.%e=#<#<wyt*<*#",
";;#.<.pX%.X#==###$;;*,;%,,##,###.%<twyt<e#%",
"hs<sq1&#..<#.####$#%*,,;%<e,#.%%;%*w<tte<%;",
"iir2sp&%%%%%;;****#%**;,;;,,,%$48%#;*w<<e,#",
"::::=&*<*#++++,<,*$,,*#%,,;>.#$;#%###;*%*#%",
"::::=<  #5%+o#4#,<,%y%###y;##$    4O####4e ",
"                                           "
};
