/* XPM */
static char *death7[] = {
/* columns rows colors chars-per-pixel */
"43 69 47 1 ",
"  c black",
". c #0B0B0B",
"X c #131313",
"o c #1B1B1B",
"O c #332B13",
"+ c #3F2F17",
"@ c #430000",
"# c #470000",
"$ c #4F0000",
"% c #530707",
"& c #5B0000",
"* c #5B0707",
"= c #5F0707",
"- c #670000",
"; c #670B0B",
": c #6B0F0F",
"> c #730000",
", c #7F0000",
"< c #731313",
"1 c #771717",
"2 c #7F1B1B",
"3 c #4B371B",
"4 c #732B00",
"5 c #5F4323",
"6 c #6B4727",
"7 c #774F2B",
"8 c #6F6F6F",
"9 c #8B0000",
"0 c #9B0000",
"q c #831F1F",
"w c #A70000",
"e c #B30000",
"r c #BF0000",
"t c #8B2323",
"y c #8F2B2B",
"u c #972F2F",
"i c #9B3333",
"p c #A33B3B",
"a c #A73F3F",
"s c #CB0000",
"d c #D70000",
"f c #FF1F1F",
"g c #8F5F37",
"h c #B34F4F",
"j c #BB5757",
"k c #FF5F5F",
"l c #C76363",
/* pixels */
"                                           ",
"                                           ",
"                                           ",
"                                           ",
"                                           ",
"                                           ",
"                                           ",
"                                           ",
"                                           ",
"                                           ",
"                                           ",
"                                           ",
"                                           ",
"                                           ",
"                                           ",
"                                           ",
"                                           ",
"                                           ",
"                                           ",
"                                           ",
"                                           ",
"                                           ",
"                                           ",
"                                           ",
"                                           ",
"                                           ",
"                                           ",
"                                           ",
"                                           ",
"                                           ",
"                                           ",
"                                           ",
"                                           ",
"                                           ",
"                                           ",
"                                           ",
"                                           ",
"                                           ",
"                                           ",
"                                           ",
"                                           ",
"                                           ",
"                                           ",
"                                           ",
"                                           ",
"                                           ",
"                                           ",
"                                           ",
"                                           ",
"                                           ",
"     a                                     ",
"     #a             hu;               $4jly",
"     $1a            pt@@e              ,yqj",
"     -@#a         hry10rde              -yh",
"      @q>        huwOrdrfd               $1",
"9     $u>e>      u;-qw0q>w@@9y           $=",
",>    :%-rd0&&   @@@@9@@$,@@-@-yi       -==",
"ww0$wre9&wrdsw>@@$$>19:;$&$www-$@0a0,ee99@-",
"$-@0$>>&0$>0ew0,>>&;1,:;$@,&&&>-&>=a-rfke9@",
"2@0>9ee909,#*00$>>9&$@@@@$,>,@&,@>$u-9rr9@5",
"@&&->>9@-0r@-,,09%9ee2**@@@@@,@&,@@$t-@@@35",
"@=>@@@,9$$,#@-@9e,@%9ee2**@@,@&,@>@@-ty2$+:",
"e-@@@@7$$$&#@@@-9,-@9&9**@@@@@d&>-i@@@@0su9",
"--@X,X-$&@@#@@@#@@-9--$@@@0>>d00-0@@@@10s9:",
"di,i8<yo$Xo@@##@#@#--9,@@>>>99%s0@@@@@199:%",
"ttq1iy%@XX,@@@@@@@#@;9,--@,:@X$0@&@@&40$9:%",
";;;;*%%$$$$$-@&&&&&@o-@--@@@@#$$@@.@@@&@$@@",
";;;;*,g,>--@&>>,>>&#o##@%@@@-->>-&6O@&&&@@@",
"                                           "
};
