/* XPM */
static char *death3[] = {
/* columns rows colors chars-per-pixel */
"43 69 57 1 ",
"  c black",
". c #0B0B0B",
"X c #131313",
"o c #1B1B1B",
"O c #2B230F",
"+ c #332B13",
"@ c #3F2F17",
"# c #3F2B1B",
"$ c #272727",
"% c #430000",
"& c #470000",
"* c #4F0000",
"= c #530707",
"- c #5B0000",
"; c #5F0707",
": c #670000",
"> c #670B0B",
", c #6B0F0F",
"< c #730000",
"1 c #7F0000",
"2 c #731313",
"3 c #771717",
"4 c #7F1B1B",
"5 c #4B371B",
"6 c #533F1F",
"7 c #732B00",
"8 c #5F4323",
"9 c #6B4727",
"0 c #774F2B",
"q c #6F6F6F",
"w c #8B0000",
"e c #9B0000",
"r c #831F1F",
"t c #A70000",
"y c #B30000",
"u c #BF0000",
"i c #8B2323",
"p c #8F2B2B",
"a c #972F2F",
"s c #9B3333",
"d c #A33B3B",
"f c #CB0000",
"g c #D70000",
"h c red",
"j c #FF1F1F",
"k c #874307",
"l c #875733",
"z c #8F5F37",
"x c #B34F4F",
"c c #BB5757",
"v c #B37347",
"b c #BF7B4B",
"n c #FF5F5F",
"m c #838383",
"M c #9F9F9F",
"N c #FF9B9B",
"B c gray86",
/* pixels */
"                                           ",
"                                           ",
"                                           ",
"                                           ",
"                                           ",
"                                           ",
"                                           ",
"                     *                     ",
"        *          w       *               ",
"                w        w   w             ",
"               w   w                       ",
"    *           w       w                  ",
"                            w       w      ",
"                         w      lv         ",
"       *                  w    b#t6        ",
"  *                      w**<  M28y        ",
"             w w         w*:: < <9    w    ",
"                             ww-l8 w    w  ",
"   w w    w            ::-  wu-7<M b       ",
"                        :w%:%%u%<q M  w   w",
"                        :*%*%%h<::q        ",
"     w                   - --%ty zl-e     6",
"                         ** %%%wwu-77----: ",
"  w                       ***%%:%%u%%-e--g ",
"w   w                        *%*%%h<-*<-*w:",
"                             -w--%tyw-ef19 ",
" ww   w                       **%%%w%:wnN  ",
"w ---*                         * %:uw: jnm-",
"-------                       *-  :uw%-- 1-",
":  ----                      <<ut  % <*7k*-",
"---  ::-                    tiss%ww:*<*%%%w",
" - w-- -                    4:*<<y--*%dxxp%",
"-w- <                       ::***<%1ep4433<",
" :*  w                       :***<%::wixxxw",
"**1- 1                        %%%%  *ii*44%",
"-w----                                 %xxa",
"--ac                               <* - %4%",
" -i%<1:%                            %%%%%%%",
"-<rc*--                           %%%  %%%e",
":wa,                               %::%%%+5",
"*4=c                                  %%e%-",
"eiaa                                 <ff<fe",
"ew:4&                          <    w<:%%p-",
"1w:3&                          <*   ef%y@if",
"%y->%&                        *w<* 3ef<wifi",
"*-w%%&&                       *w** 3wfw,,=,",
"*wgw%&%                        **  **w,===i",
"%:**:&=,                         *  %*%%%%*",
"% **%&%%                      << *   ******",
"% **&&:--                    <%* --  %*%%%%",
" - *-:w1-                    -:*w-*-  %%%*:",
"%   ::--:           xa>          <<<-   ::*",
"%   :---:           di%%y         %:-*     ",
";   *---:         xup3eugy        -*<7*    ",
"   :--1@--       xat+ugujg         *:<<::  ",
"%%z&*=@@-:       a>:rter<yp-        *:1ww<:",
"%%%:-0 @::       %%%%w%%*1:%%   i 5  *:111<",
"%%%0e<$o-tuy     X*<3w,>*-1%-  :=<+   **:<<",
"%%%-ue%-e*<eyy   1*>31,>*%%%g-<%:ey1   %*--",
"%*%-ue<<X4w:w%:  *;-*%%%%*<1%-1 :lwyt-1-%%*",
" 1%-2%*:-%%Xw=t: %<**%%%%%%%%w-<-1wyt1e%*%.",
" 7%   %*%<%%%%-<1%=,***%%%%<w<<:%*1tte1*<%.",
":     B@ %%%%%w<1:%**:-*%%%ww=<e%*-w11e<%o ",
"         %X1X::-%:*3-<:*%e%%<%%%%*%:-*-%   ",
"      :11%X11oo1**>*-<<:*<e<%X**X %%%%5    ",
"       -e-****%XX1>*--:<::<<<*&            ",
"         O::*****&:<<-:*<<:,X%&            ",
"                <%:*y* %%y:%%&             ",
"                                           "
};
