/* XPM */
static char *death0[] = {
/* columns rows colors chars-per-pixel */
"43 69 91 1 ",
"  c black",
". c #0B0B0B",
"X c #170F07",
"o c #171F07",
"O c #131313",
"+ c #1B1B1B",
"@ c #2F1B0B",
"# c #2B230F",
"$ c #232B0F",
"% c #332B13",
"& c #3F2F17",
"* c #3F2B1B",
"= c #2F371F",
"- c #430000",
"; c #470000",
": c #4F0000",
"> c #530707",
", c #5B0000",
"< c #670000",
"1 c #6B0F0F",
"2 c #730000",
"3 c #7F0000",
"4 c #731313",
"5 c #771717",
"6 c #7F1B1B",
"7 c #432F1B",
"8 c #4B371B",
"9 c #533F1F",
"0 c #732B00",
"q c #533F2F",
"w c #5F4323",
"e c #474F33",
"r c #5F4B37",
"t c #53573B",
"y c #6B4727",
"u c #774F2B",
"i c #7F532F",
"p c #6F7357",
"a c #6F6F6F",
"s c #777777",
"d c #8B0000",
"f c #9B0000",
"g c #831F1F",
"h c #A70000",
"j c #B30000",
"k c #BF0000",
"l c #872300",
"z c #932F00",
"x c #9F3700",
"c c #A73F00",
"v c #8B2323",
"b c #8F2B2B",
"n c #972F2F",
"m c #9B3333",
"M c #A33B3B",
"N c #A73F3F",
"B c #CB0000",
"V c #D70000",
"C c #E30000",
"Z c red",
"A c #FF1F1F",
"S c #874307",
"D c #AF4300",
"F c #B74700",
"G c #AF7B1F",
"H c #875733",
"J c #8F5F37",
"K c #9B633B",
"L c #A36B3F",
"P c #C34F00",
"I c #CB5707",
"U c #D75F0B",
"Y c #DF670F",
"T c #FF7F1B",
"R c #B34F4F",
"E c #BB5757",
"W c #BF5B5B",
"Q c #AB6F43",
"! c #B37347",
"~ c #FF5F5F",
"^ c #C76363",
"/ c #FF7B7B",
"( c #CF8353",
") c #838383",
"_ c #939393",
"` c #979797",
"' c #9F9F9F",
"] c #A7A7A7",
"[ c gray67",
"{ c gray70",
"} c #FF9B9B",
/* pixels */
"                                           ",
"                                           ",
"                                           ",
"                                           ",
"                                           ",
"                                           ",
"                                           ",
"                                           ",
"                                           ",
"                                           ",
"                    <  B  B     0S         ",
"                  <<   whL     ::0S        ",
"                d  <<w B<Bk                ",
"             u     <<tp<BHy    2hd         ",
"            duy  < ~wUBfkJ9LJ88:~/f 2      ",
"            dhy    ZBwffQQhkLJ8fA}f     00 ",
"             h  f   hh-JJJy<uJH8:d      ::0",
"       d            <Kuu<wuC9uw83       :: ",
"                fhf -JddwwH9uwww--  -      ",
"      3 hh= 3 d jBhu-JdHJuwu<wwwfs, --     ",
"      3jCk3    ,:hd2LdJdiwidywwkZ)S< -     ",
"      ,dhkd     ,Ld!duJfdywdhZs_LS         ",
"       ,2a`< f   :!ddddhyd9yBh)'fH         ",
"     f    ad)  <-Lbdy33gd9d3J!_[k3         ",
"         K!KL!!!jidd<<3dBBd!Y('jQf3q       ",
"        =!KJJdLL2j32::nnMMMcITa3,dqr<      ",
"        KHydiJJd222*,<NN6M^NFIH3<99dy7     ",
"       KUyyuuddu22d3,,nE63N^Wg<,:,,3<7  ]  ",
"      kP2d8w22d2f,,,,,nm^6hv44:::,d3):'3f3 ",
" ::   dP,lddd222,,,,-,m6mR44<<:-::y22-222  ",
" ::   =H,xl22,22,,,-::N66mv66<::3,,,-<w<f :",
"      Hy9hl:222,,,,,  3v243d<<22,22:23y3  :",
"    3PKi9dw<3d2,,,,:-: <64h3<<,23:<2ed9:   ",
"  6633fBid3dd33,,d2 :    vvv<<,h:<,:ye8:3  ",
" 663DN!K02hHU,5B,,--;;   vnMcz0,<,:BJy=::d ",
"  55vjmK,2ZjF5,u, ,      xxxz932,<>vJ9$:<<j",
" 5v6,m2<,:,,,,,,2,,-    vxzz9d,<2d31y&o::  ",
"  gddd2<,,<,,,,:<      0YGy22,,22d,3,:::   ",
"wuHu0d0<2,,,-,--,-     3HH,,,,:d@2,3&:::   ",
"  wuHuywi0,,:,j-,,     5-f,::,--:<::--  :  ",
"   9yiiyw, ,,,:<,,,,    ,ff,:-::::: --3    ",
"   ##9y89: 3<,,,:-,,,  ,df,:,;::::::--     ",
"  8%#%98%,,3k,f2,<<,,2;,22:,,OOOXX::-  -   ",
" 9## #%&,,,dhk2,<<<,,,,2d,,:,,OOOO+:--     ",
" y#  %#3- ,- <3:,::>,,,,,:,,,<:-OO.:-      ",
"`   %#d3-,, -3<::::::,:,:,<222:,--.:2 2:   ",
"   `   : ,---<d<,,,:,::,,:,,d22:--.:       ",
"        : -kdd<d2,:::-,-,,2f3dd:- .        ",
"         - f<32d3<,:---:<,,,2:::-X.- ---   ",
"        :- <d2d2d22::--:23f2:---<     --   ",
"         --<22<,23::----,f:2dd,--          ",
"          <<--::,<:---:::<3<:---- -- -     ",
"         - d:--:::--- :--:,<d2,X- --       ",
"          ------------:---,:<- X  --       ",
"          3 <dV--::-3 -----<,:,<           ",
"           3X<,-:::--:-:::-::-3<           ",
"            -X3--::------,,,---:::         ",
"              X----------,V,----           ",
"                 -----:--:V---             ",
"                 -----,:-----              ",
"                ------,:----:              ",
"               --::---::--&-               ",
"              --::::-- 8&9&-               ",
"             ---::::-- 89y8                ",
"             j- :j:-   wuy9                ",
"                      8wuuy9               ",
"                      9wwyuyy              ",
"                     9uuw 8uuy             ",
"                     98{8 &&{y             "
};
