/* XPM */
static char *death6[] = {
/* columns rows colors chars-per-pixel */
"43 69 51 1 ",
"  c black",
". c #0B0B0B",
"X c #131313",
"o c #1B1B1B",
"O c #2F1B0B",
"+ c #332B13",
"@ c #3F2F17",
"# c #430000",
"$ c #470000",
"% c #4F0000",
"& c #530707",
"* c #5B0000",
"= c #5B0707",
"- c #5F0707",
"; c #670000",
": c #670B0B",
"> c #6B0F0F",
", c #730000",
"< c #7F0000",
"1 c #731313",
"2 c #771717",
"3 c #7F1B1B",
"4 c #4B371B",
"5 c #533F1F",
"6 c #732B00",
"7 c #5F4323",
"8 c #6B4727",
"9 c #6F6F6F",
"0 c #8B0000",
"q c #9B0000",
"w c #831F1F",
"e c #A70000",
"r c #B30000",
"t c #BF0000",
"y c #8B2323",
"u c #8F2B2B",
"i c #972F2F",
"p c #9B3333",
"a c #A33B3B",
"s c #A73F3F",
"d c #CB0000",
"f c #D70000",
"g c #E30000",
"h c #EF0000",
"j c #FF1F1F",
"k c #874307",
"l c #9B633B",
"z c #AF4747",
"x c #B34F4F",
"c c #FF5F5F",
"v c #FF7B7B",
/* pixels */
"                                           ",
"                                           ",
"                                           ",
"                                           ",
"                                           ",
"                                           ",
"                                           ",
"                                           ",
"                                           ",
"                                           ",
"                                           ",
"                                           ",
"                                           ",
"                                           ",
"                                           ",
"                                           ",
"                                           ",
"                                           ",
"                                           ",
"                                           ",
"                                           ",
"                                           ",
"                                           ",
"                                           ",
"                                           ",
"                                           ",
"                                           ",
"                                           ",
"                                           ",
"                                           ",
"                                           ",
"                                           ",
"                                           ",
"                                           ",
"                                           ",
"                                           ",
"                                           ",
"                                         0 ",
"                                           ",
"                                           ",
"                                           ",
" 0                                   0    0",
"                                           ",
"                                         0 ",
"    0  0                         0        ;",
"                                       0   ",
"    0                              %6k    ;",
"0                                   <qsss2#",
"       0                             ;0xxz2",
"                                  0    %%3s",
"  0  s                                **#s3",
"     $s             xi:                66%s",
"    q%2s            ay##r             *,,#%",
"   r>;#$s         xtu2qtfr         *#iqqq,+",
"l  3u>#w,        xie+tftjf     s0s0;qcvgtq,",
"0;3uu>%i,rr      i:;weqw,e##0y&y;y;0tjcffq,",
"<,#%>f>&;gdr0*   ####0##%<##;#;&p%p%*qgrq3i",
"eeq%etr0*ethdr,##%%,20>:%*%q##;%%###X*00;;i",
"%;#q%,,*q%,qrq0<,,*:2<>:%#<#*<pdr%<<#.%#;;3",
"3#q,0rr0q0<$=,q%#,0*%####%<<#*<%%,,##.##%>7",
"8**;,,0i&X#3#0r<#&0rr3==###<#*<%%#o.#*###47",
"#-##*,*y3*#,#;0<;#0*0==###,##f*,;s#;;#%%%@>",
"r;##rr0*;####$##;0;;%###q,0,fqqX%<p<;;<qdi0",
";;#X<X#%t**#$#X#$;;0<##,,,#00&d##%%uu<2qd0>",
"fp<p910##<<#X<<#$#:0<;;#<>,#X%q%######200>&",
"yyw2pu&%%%%%;;***#o;#;;####,%<#,####*6q%0>&",
"::::=&*<*#@@@@,<,$o$$#&###;;,,#o.#.###*#%##",
"::::=<91#5%@O#4#,,######;<<;*#%%o#8+#***###",
"                                           "
};
