/* XPM */
static char *death1[] = {
/* columns rows colors chars-per-pixel */
"43 69 82 1 ",
"  c black",
". c #0B0B0B",
"X c #170F07",
"o c #131313",
"O c #1B1B1B",
"+ c #2F1B0B",
"@ c #2B230F",
"# c #372313",
"$ c #332B13",
"% c #3F2F17",
"& c #3F2B1B",
"* c #232323",
"= c #272727",
"- c #2F2F2F",
"; c gray23",
": c #430000",
"> c #470000",
", c #4F0000",
"< c #530707",
"1 c #5B0000",
"2 c #5B0707",
"3 c #5F0707",
"4 c #670000",
"5 c #670B0B",
"6 c #6B0F0F",
"7 c #730000",
"8 c #7F0000",
"9 c #731313",
"0 c #771717",
"q c #7F1B1B",
"w c #4B371B",
"e c #533F1F",
"r c #732B00",
"t c #5F4323",
"y c #53573B",
"u c #6B4727",
"i c #774F2B",
"p c #7F532F",
"a c #6F7357",
"s c #6F6F6F",
"d c #777777",
"f c gray50",
"g c #8B0000",
"h c #9B0000",
"j c #831F1F",
"k c #A70000",
"l c #B30000",
"z c #BF0000",
"x c #872300",
"c c #932F00",
"v c #8B2323",
"b c #8F2B2B",
"n c #972F2F",
"m c #9B3333",
"M c #A33B3B",
"N c #A73F3F",
"B c #CB0000",
"V c #D70000",
"C c #E30000",
"Z c #EF0000",
"A c red",
"S c #FF1F1F",
"D c #874307",
"F c #AF4300",
"G c #B74700",
"H c #875733",
"J c #8F5F37",
"K c #9B633B",
"L c #A36B3F",
"P c #C34F00",
"I c #D75F0B",
"U c #AF4747",
"Y c #B34F4F",
"T c #AB6F43",
"R c #B37347",
"E c #FF5F5F",
"W c #FF7B7B",
"Q c #838383",
"! c #979797",
"~ c #9F9F9F",
"^ c gray70",
"/ c #FF9B9B",
/* pixels */
"                                           ",
"                                           ",
"                                           ",
"                                           ",
"                                           ",
"                                           ",
"                                           ",
"                                           ",
"                                   g   g   ",
"                                g          ",
"                           leeh     g      ",
"                  B      1hggeehg          ",
"                 h1     1hee,1eeg g   g    ",
"                 47    38geeu,,&h g d      ",
"             4  B477  1rDee4e3,:g:1:h  Q   ",
"         i 44   h44g  :3D,,4,,::7g,17h rD  ",
"        ggu 44t B4gg  7cchh4,,::g717hBEWrD ",
"      i gku 44ya4BHu7h77ghlh,:&8ggD4~hS/8  ",
"     giu k4 EtIBhzJeh7gg8vcFx&88h:LDhh88   ",
"     gku    ABthhTTk78utcxlhggg7Hh         ",
"    ,hkk h4: kk:JJJu8pHj7xhgg4gk4: 44  g   ",
" ,kkkk7      4Kii4tipwpv718hh4g:::7hl4  err",
"8lCzk4    s!1UngRKpH@p++714h44:::Az77h8* ,,",
"1gkkg      slQJg:&00&u&#7787,bUn4kg7h8***,,",
" 17      74r4RKhh41871  44T8h:mnv8ghzhh*** ",
"        ggmNg477,118 1 81p74,:nNn777h88*8* ",
"      tJ7Jg7gMgp177:1 8:111>4:4vNq817h$O,4 ",
":   D HgK7T7MVg1771 18<:>3  48449M917Ow4ue ",
"    ei7Hgg77zzhg70 :99::13332q 49948:1:::g4",
"    1%7i77ggkzhhgb  95::38338 484441:::1:44",
"   :11gggg448zZB4b  95<< 88mx4,::,:118g:14 ",
" KG8g1%:477418zlgZ   955 8>xx4,:7:B8g2lgue ",
"KIhkg711::::,,ggVY        4440,1:b181*hgru8",
"P1kBg7771%:,:vnzlg         ,, 0::,11**t;ge,",
"Ph77ggg7111:,718g        ::220 0:8Bmgut-tw,",
"H7ilhlggg7171781g        0>>q00gBl%vBJiuwO:",
"ue=w41 74g1g1112g       0  2>0gBkgvBvHitwO:",
"f!tj1 :7411112,,g         02>0gBg66<6wuwwO:",
"88hBtg411gg7 , ,           >>,,g6<<<v4w8$,:",
"8rrr571:414,:>>,     :   02>,>:,::::,,,8,:,",
"F&+j41,1::4:: 1 1         2j,   :::,7:,,,  ",
"$+3r111:l:1::4,,  1       >v><   ,  , ,,1 ,",
"&11j1 1,,  44111g        :b4:1     h1,, , :",
",%,11+ 4488411,:4,       >N4::4g    h      ",
"4,v::$444gz17,1,417      ,,:::04           ",
"@jj9,,4418zz78111771g   kn1, :vh  1        ",
"5 m2,,,,4gk4h84417171g1gj0::g,0,1  11      ",
"  52  ,:1: 9g,4117<111 :1::7:,,,711111     ",
"     ,,44 =O4,1V17,t<,17::77:41884:oo.,:   ",
"     , ,,,4g,1<t1u71, 711:1k7,88411::.,7   ",
"      44 14,18,1g787,,::1:,1,,1kkh89*o::., ",
"     ,44,41,477,,14,:::h:h,4h11g888OO::o.  ",
"      ,,g7ggg:::,,,,,,::,,::,14,714h4::O.: ",
"      4g877:g4:::::,:,:X,,:::,,,::hBh:4o   ",
"       474::14kV::,:::,,,:::::,:1:1h2:Oo   ",
"        1ggg:h11:,,:::,,::,,,:,,:87t       ",
"         < g,zhh:::::::,::111:,,:8u        ",
"            <:<:<:,::,: ::1V1:::,,         ",
"                  :::::,::,V:::::          ",
"                  :::::1,::::::            ",
"                 ::::::1,::::::            ",
"                ::,,:::,,::::,             ",
"               ::,,,,:: ,,,::              ",
"              :::,,,,:: ,41,               ",
"              l: ,l,:   174,               ",
"                       ,1774,              ",
"                       e44ui4u             ",
"                      e4it wi4u            ",
"                      ew^w %%^u            "
};
