/* XPM */
static char *death2[] = {
/* columns rows colors chars-per-pixel */
"43 69 65 1 ",
"  c black",
". c #0B0B0B",
"X c #170F07",
"o c #131313",
"O c #1B1B1B",
"+ c #2F1B0B",
"@ c #2B230F",
"# c #332B13",
"$ c #3F2F17",
"% c #3F2B1B",
"& c #232323",
"* c #430000",
"= c #470000",
"- c #4F0000",
"; c #530707",
": c #5B0000",
"> c #5B0707",
", c #5F0707",
"< c #670000",
"1 c #670B0B",
"2 c #6B0F0F",
"3 c #730000",
"4 c #7F0000",
"5 c #731313",
"6 c #771717",
"7 c #7F1B1B",
"8 c #4B371B",
"9 c #533F1F",
"0 c #732B00",
"q c #4F3B2B",
"w c #5F4323",
"e c #5F4B37",
"r c #6B4727",
"t c #774F2B",
"y c #7F532F",
"u c #8B0000",
"i c #9B0000",
"p c #831F1F",
"a c #A70000",
"s c #B30000",
"d c #BF0000",
"f c #8B2323",
"g c #8F2B2B",
"h c #972F2F",
"j c #9B3333",
"k c #A33B3B",
"l c #A73F3F",
"z c #CB0000",
"x c #D70000",
"c c #E30000",
"v c red",
"b c #FF1F1F",
"n c #874307",
"m c #875733",
"M c #8F5F37",
"N c #9B633B",
"B c #A36B3F",
"V c #AF4747",
"C c #B34F4F",
"Z c #BB5757",
"A c #B37347",
"S c #FF5F5F",
"D c #FF7B7B",
"F c #979797",
"G c #FF9B9B",
/* pixels */
"                                           ",
"                                           ",
"                                           ",
"                                           ",
"                                           ",
"                                           ",
"                                           ",
"                                           ",
"                                           ",
"                           u               ",
"   -                    u        u    u    ",
"                           u   u           ",
"                   -   u  *Auu             ",
"          u              iic%N u         u ",
"                   00    N::::g  u   u     ",
"                -  --  : A-: :4            ",
"        u          -- -< <3: ::  u  u      ",
"           u       44: -03:3: :u        u  ",
"                 4ss<- qe:<y-:: *00  <  ux ",
"         *Au    -4-**3vc4:-:a<*<**:* :< -u ",
" t      iic%:   :vi**<i4<: :*:*x**-:3449   ",
"utr  u  N:::uguBuz<**ii4*  ::3:v3::3iz:< u ",
"uar     A-::u44g <44Gvi<*:: ::*asun<:SD4   ",
" a    < <3: ::u 3  *vz<<*  ::::*u*Bn4bD4   ",
"      -03:3:        444* *33da: du3muu-0n  ",
"<     *u:<y-            Vazak   4--::r43:  ",
"a    <<::-:a<*          p7fjj*u<-*--:4: : 0",
"  3fh3<:::a:3*          z<<-33uu:3:-4  uuu-",
"  ::<Z ::::<-           f4<---3<<  : ***vd3",
" :::<*u:< u               ::***    *VCg3au3",
"-43::Z: : :                  **  4ig7>>u3ui",
"isf:u- 3   =                     <<uVCh*73:",
"iu:<--4u4  -                     =-<f-7Cp:3",
":s::u:   **g                    3:-f *h7*4*",
":::::::=** ,l                      4*******",
"-uxu::34  -=g                      *  ***i#",
":3:<::*-:::=>                     *<<****O8",
" <::::1=** ;>                      ******:*",
"u::--:<=: *>                         3-*z4u",
"013:--*=***                   3   u3<**g:4:",
"%:<-  ==  :  :                u   i *s$fzr&",
":<      =<<-   :             -u4 6iz3ufzfMw",
"-        ::  ::              :-4 6uzu22;2mt",
"-       ::     <:             :- --u2;;;f8t",
"* # +      ::<<                -  *-****-<r",
"< F   3-< :< :              33       -----8",
"&   <:<:  <::**             *-         ***-",
"<   3   <<::3***                         *-",
"<  ::-- :4::3*** : u         g<            ",
"8* 4   u<<::33<<             ;-  <:        ",
"w*:-44< -<:::3<<   :    :3   g<g:u: i:     ",
"p** ud<-::::::x:<     -: ::kf;-:#m9 i-:    ",
"u**:4<u-::::-ds:::33C--**-:<-;<j * :*3::   ",
"j *:<-:-4:u:<:::4 3sg--***---<--8i  :--::  ",
"5 <u:-<-u3:3-::---*u1-*****-**k3:3   :::::-",
"> M3uu3**3--3-4u--:4d**---****uss4    *oo.-",
">  43****-*:<-3- **za**:u:***-i*usa<:4:**.-",
" rt<   ***x***-*-: a<**ixi*-34-m:s3a4i*-*.-",
"  <     uu*i--***-*--**<u<**--*w:4aai4-3*. ",
"     :** u-d-**-*-3-:-**<***-@r:$:u44i3*O.*",
"      ******-****u3-:-****-*w*:*:3:--:*    ",
"       ****u-***-s4---****i*$*u<i<*-*      ",
"      * 4 <*****-u4*<---**i*3uiizi*- 84*   ",
"      * 44X*- *--***;-<:->>*uu;:i>*-  **   ",
"       ::  *  -s***<*:3<->***3****o#       ",
"          ** *- -**<-:33<-*i3*o--          ",
"           **-- -**=-::<3<<333-=           ",
"                   =33:4-33<2o*=           ",
"                   --s- **s<**=            "
};
