/* XPM */
static char *_487855208143[] = {
/* columns rows colors chars-per-pixel */
"74 60 253 2 ",
"   c #1B1C1A",
".  c #27251D",
"X  c #38291F",
"o  c #272925",
"O  c #392B27",
"+  c #37342B",
"@  c #3B3A33",
"#  c #383634",
"$  c #2F3431",
"%  c #211B19",
"&  c #43342B",
"*  c #49372C",
"=  c #54362E",
"-  c #4C3B33",
";  c #463A34",
":  c #533D34",
">  c #533F39",
",  c #583C35",
"<  c #442F2C",
"1  c #643D32",
"2  c #34423F",
"3  c #4B443C",
"4  c #49443A",
"5  c #544235",
"6  c #5A4236",
"7  c #54433B",
"8  c #5C443B",
"9  c #5C4A3C",
"0  c #554A3B",
"q  c #59563D",
"w  c #63453C",
"e  c #634B3D",
"r  c #684839",
"t  c #66523E",
"y  c #714C37",
"u  c #3A4745",
"i  c #494944",
"p  c #5C4B43",
"a  c #574945",
"s  c #49544A",
"d  c #5B554C",
"f  c #57554A",
"g  c #4C5B56",
"h  c #595955",
"j  c #544D50",
"k  c #644C43",
"l  c #6B4D43",
"z  c #654A46",
"x  c #744C44",
"c  c #635245",
"v  c #6B5243",
"b  c #6B544B",
"n  c #66594B",
"m  c #745344",
"M  c #75544A",
"N  c #745B4D",
"B  c #795846",
"V  c #665D56",
"C  c #745C52",
"Z  c #785C56",
"A  c #604B50",
"S  c #5C625B",
"D  c #5A6758",
"F  c #78624D",
"G  c #646354",
"H  c #6C6354",
"J  c #64635C",
"K  c #6C635A",
"L  c #686A5B",
"P  c #7B6455",
"I  c #736A5B",
"U  c #776759",
"Y  c #7A725D",
"T  c #6B6954",
"R  c #5B6967",
"E  c #536E6C",
"W  c #6B6B63",
"Q  c #666764",
"!  c #746D64",
"~  c #776965",
"^  c #697369",
"/  c #747263",
"(  c #7B7363",
")  c #74726D",
"_  c #7D746A",
"`  c #797B6B",
"'  c #677774",
"]  c #767B74",
"[  c #7C7C7B",
"{  c #767975",
"}  c #7C6F78",
"|  c #835C49",
" . c #835854",
".. c #836A5B",
"X. c #856D54",
"o. c #856E64",
"O. c #847363",
"+. c #84746B",
"@. c #887869",
"#. c #877B73",
"$. c #91796E",
"%. c #6E817B",
"&. c #7B837B",
"*. c #798477",
"=. c #798672",
"-. c #89866C",
";. c #83837C",
":. c #8B8A7C",
">. c #888677",
",. c #928B78",
"<. c #89947C",
"1. c #93937C",
"2. c #98947B",
"3. c #93886D",
"4. c #A2917A",
"5. c #817F80",
"6. c #7A8885",
"7. c #7A948B",
"8. c #779994",
"9. c #6D908D",
"0. c #7EA199",
"q. c #78ABAB",
"w. c #848483",
"e. c #838B83",
"r. c #8B8C83",
"t. c #848C8B",
"y. c #8A8A89",
"u. c #968C85",
"i. c #849485",
"p. c #83948C",
"a. c #8C938C",
"s. c #8C9C8C",
"d. c #8A9888",
"f. c #939482",
"g. c #939B8B",
"h. c #96978A",
"j. c #8B9B93",
"k. c #8C9D9B",
"l. c #879795",
"z. c #939492",
"x. c #929C94",
"c. c #9A9B93",
"v. c #999B9A",
"b. c #8F8D93",
"n. c #A49D88",
"m. c #A1948B",
"M. c #9AA28E",
"N. c #8CA29C",
"B. c #87A299",
"V. c #95A294",
"C. c #9CA493",
"Z. c #93A49D",
"A. c #9BA49C",
"S. c #9AAA9C",
"D. c #97AA98",
"F. c #85A387",
"G. c #A7A48B",
"H. c #A5AA93",
"J. c #A2AB9D",
"K. c #A5A795",
"L. c #B4AB92",
"P. c #A5B29C",
"I. c #B6B299",
"U. c #8B9DA2",
"Y. c #989DA1",
"T. c #8CA5A2",
"R. c #89A9A7",
"E. c #94ACA3",
"W. c #9CACA3",
"Q. c #93ACAB",
"!. c #9BADAC",
"~. c #97A4A4",
"^. c #8BB3AD",
"/. c #9CB3A5",
"(. c #94B3AA",
"). c #9BB3AC",
"_. c #98B8AD",
"`. c #99AFB3",
"'. c #8AB5B5",
"]. c #95B3B3",
"[. c #9CB5B3",
"{. c #92BAB5",
"}. c #9CBAB4",
"|. c #9CB5BB",
" X c #94BBBA",
".X c #9DBBBB",
"XX c #94B3B9",
"oX c #8CACB3",
"OX c #A3ADA3",
"+X c #AAABA4",
"@X c #A7A9A7",
"#X c #A3B2A4",
"$X c #ABB3A4",
"%X c #ABB9A6",
"&X c #A4B4AC",
"*X c #ABB4AB",
"=X c #A3B9AD",
"-X c #AAB9AC",
";X c #B1B6A8",
":X c #A3B6B3",
">X c #A4BAB5",
",X c #ABBBB4",
"<X c #A2B6BA",
"1X c #A3BCBB",
"2X c #A9BDBB",
"3X c #AAB5B4",
"4X c #B2BBB3",
"5X c #B7BAB9",
"6X c #ABAEAB",
"7X c #9EC2BA",
"8X c #B2C0AD",
"9X c #ACC1B5",
"0X c #A4C1BC",
"qX c #ABC2BC",
"wX c #A7C2B7",
"eX c #B4C3B5",
"rX c #B4C4BB",
"tX c #BAC5BD",
"yX c #AAC0AB",
"uX c #C1C5BA",
"iX c #9DBDC3",
"pX c #9DB5C1",
"aX c #8CB7C0",
"sX c #A3BEC3",
"dX c #AABEC3",
"fX c #A4BFC8",
"gX c #BABFC2",
"hX c #9DC1C4",
"jX c #9CC3C9",
"kX c #A5C2C5",
"lX c #ABC3C4",
"zX c #ACC8C7",
"xX c #A5C3CA",
"cX c #AAC5CA",
"vX c #ADC9CC",
"bX c #A7C9C9",
"nX c #B2C5C4",
"mX c #B4C9C5",
"MX c #B2C6C9",
"NX c #B2C9CA",
"BX c #BAC7C6",
"VX c #ACC7D1",
"CX c #BCD2D3",
"ZX c #AFCBD0",
"AX c #C4C6C3",
"SX c #C9CBC8",
"DX c #CCD0CB",
"FX c #D4D5CF",
"GX c #C7D7D8",
"HX c #D3D4D2",
"JX c #D9D6D6",
"KX c #D3CECD",
"LX c #D4E3E8",
/* pixels */
") o $ # # # # # # u i j j h h Q R W ) ) { { ) Q Q Q Q h W W ) { { { [ ) @ i j j j h d h V V ! W _ { [ [ w.r.w.w.z.z.w.6.#.w.5.t.l.z.z.v.c.v.v.z.w.) ",
"5.o u i g R R R ' ' ' 6.9.U.`.<XgXMXMXGXCXGXGXGXdXNXCXMXCXdXMXMXNXnXMX[.h.] 1.<.#X$Xg.h.*.3X&Xa.6.uXtXJ.4XOXA.l.%.' S g s u u 2 $ $ $ $ o o o o # o ",
"b.2 U.U.U.!.`.8.U.l.<X2XdX[.!.<X<XoXhXpXxX<X2X<X2X<X2XK.R oXsXsX`.<X2X<XT.7.W.A.w.a.i :.#XC.C.a a J.$X/.W.A.D.OX&X@X~.Q ] V 9.z.] %.7.v.7.e.7.7.h Q ",
"Y.) |.pXdXsX!.l.oXdXfXxXdXxX<XsXiX XiXiXiXU.sXsX.XdXdX|.<XdXdXsXsXsXfXpXK.f.+.8 k 3 G.O.7 N.W.+ + #X1X>X>X2X3X<X:XQ.~.J E.3XC d./ S.V.W.Q O Q :Xc.c.",
"u.w.:XdXfXdXsXXXsXdXfXcXxX|.xXkXiXsXsXpXsX[.sXdX[.2XsXfXsXsXsXiXJ a..X.XI.s.k N K S.:X1.r.#X^ p.s.3X1X2XsX:X2X<X1X:X&XS.,X!.z i + c C.j.) k :.2X6X@X",
"w.) <XdXdXdXkXdXfXfXfXdXxXdXsXdXpXfXxXkXxXsXdXsXdXsXsXdXdXsXsXfXpXoX.XiXJ.p.l.8 ! #X.X/.] >X1X1X4X=XA.C.2X:X>X<X2X>X&Xg.4 V a z k p 8 b u.P.x.2Xz.6X",
"5.# fXsXdXdXxXxXfXfXfXdXfXfXVXxXfXfXxXfXkXkX1XfXfXsXkXdXdXkXfXiXsXsXkX<X*Xs.z.; > ).>X1Xi.B.|.:XOX/.H.&X[.>X:X>X<X2X>X3X<XD.K C ;.P.8 +XrXqXW ,XV z.",
"5.J sXfXdXfXdXxXxXxXxXxXxXxXxXhXxXxXsXxXkXsXdXlXfXsXdXxXkXsXsXsXsXfXiX1XU.j.:XD.=.:X|.xXwX4.W.=X=X2X>X2X!.&X:X2XsX>X>X<X>X.X1X2XE.c * w.i /.$XE.K J ",
"6.j <XcXdXdXsXxXcXfXfXfXcXfXxXxXkXxXfXdXkXkXlXdXfXfXfXkXkXsXsXdXsXfXsX<X>XV.[.S.,Xf.sX,X.X=X1X>X1X2X1X:XW.&X2X1X.X>X:X.X1X1X1X1X>Xe.a H c.0 - l.h z.",
";.i 1X<XsXsXsXxXcXfXVXxXdXVXxXxXxXxXfXfXsXfXxXxXfXfXsXkXsXkXiXiXfXsXsXkX[.7.1X-X:X,.:X:X0X1X1X1X1X1X>XV.1X>X1X1X1X1X<X>X<X1X1X1X1XsX;.` [.*X:.).c.@X",
"b.Z.T J kXiXxXfXxXfXVXxXxXxXVXfXxXfXfXxXxXsXsXxXdXfXsXdXdXsXsX.XiXkXsX1X!.l.1X%X).3.1X1X0X<X1X1X1X}.:X1X:X1X1X1XdX1X>X2X1X1X1X1X1XqX>X,X).lXK.E.w.h ",
") R - a.xXxXfXxXxXxXfXxXVXfXxXxXsXjXxXsXxXxX{ jXxXfXiXiXkXvXsXdXkXkXiX1XT.B.=X:X/.J..X1X1X1X1X1X1X<XOX<X2X>X.X1X.X1X<X:X}.dX1X.XnX1X2X3X2X1XJ.&.+ + ",
") # ; >XxXlXdXkXxXVXxXxXxXxXxXcXiXXXsX.Xk.LX!.1XxXfXiXiXcXT.. nX- 7 g .X[.E.7 >X1XW.OX[.1X1X<X0XsX1X1X1X>X>XsX1X1X1X*X+ ,X1X1X1X%.dX>X*X2XdX2X).y.d ",
"Y.e.$XsXxXkXkXkXfXfXxXxXfXxXxXfXfXxXaXa = M BX|.oXfXsXdXXX6.' .X' 1XpXsXR.] ) =X[.1X.X1X.X1X0X1X1X1X1X/.sX1X1X<X1X<X}.= B.[.2X/.W.1X1X&X1X<X2Xg.C.A.",
"3X6X>X2XxXlXfXfXxXxXVXfXVXxXfXVXfXsX;.&X; @XT.sXdXxXfXxXsXbX2XkXxX|.kXsXQ.T.8 ) lX1X}.1X.XdX.X1X1X:X3XW.>X0X.X1XsX1X!.3 &.2X|.>X7X1X#X: ] 2X2XW.KX5X",
"5X5X2XkXxXdXkXcXxXxXfXfXfXxXxXxXiXS z 7 p 7.).kXxXxXfXfXfXkXsXzXsXdXkXkX`.U.> k - kX1X1X7X1X.X1X1X.X*XG.-Xh.1X0X}.[ s ; *.s |.2Xa.1X/.g.O qXe.2XAXSX",
"gXgX2XlXxXlXcXXXfXxXxXxXfXxXxXxX6.; V 7 5 V c J |.dXfXxXfXxXkX|.U.kXkXkX7XB.W > : e.1X1X.X1X.X<X1X2X1X$X-XH.sX1X1Xx.7 k d }.1XQ.:.V <XW.J < 7 Z.JXHX",
"BX5X2XlXlX2XdXxXfXVXxXfXfXVXxXVXA a @ & :.K p p sXiXhXxXsXxXdXdXR.kXdX|.1XT.V.5 -.: #X1X1X1X1X1X0X1X1X:X1X1X1X:X|.>X(./.E.. T.[.).^ D.y.= - 8 OXHXJX",
"5XgXlX2Xw.:XxXxXfXfXVXxXxXfXxXsX) p i 0 > a c - k.xXfXxXxXxXiXiXfXfXZXgX.X^.: J ~.r 2XQ.zXkX X1X1XqXlX>X1X2X<X1XdXkX}.1XN.7 } ,X1X_.D n O - - (.JXJX",
"BX6X2XlXlX!.dX2X`.VXfXxXxXxXVXvXxXd z f.- - - #.kXxXxXbXxXxX,Xc.e [.xX2X9.R.e k 3Xs W.0X>X>XqX1X^ /.}.>X:X1X1X>X1X1X1X1X.Xl.e ,X1Xj.$X@ ; w l W.DXDX",
"gXBX,XdXdXdX2XdX2XdXxXfXxXVXbXdXD kXT _ a H D.9XdXxXcX|.ZXkXk.#X*XW.fXqXN.l.' Z 3XR.E.).j & Q ,Xh }.&X1X}.,X,X,X=X=XkX,X1X_.' /.1X1X4 d / C s.1XKXHX",
"5XAX:XdX~.qX!.#.z.~.3X`.3XnXcXxXd.u.H.-.c.h.g.#XBXCX#.2Xh.+X+X` / v.W.z.1XQ.[.).t.*.uXi.OX7.:X/.:XD.&XV.#XG.;X&XB.>XS.J.s.Z.W.=X=X/.C.>.g.N.E.0XHXHX",
"BXgX<XdXcX`.U l z _ Y.b.#.5XxX#.o.u.w w x @.P 9 d 1 v i l _ 8 w e w r e 1XQ.wX1XG M & < - % ` 1X=XW.1X1X,X>XW.%.1XN.}.3X>X& #X=X.XbX-X-X&X,X1XD HXJX",
"5X5X2XnXcX~.x.+.( ) ) z.( I ^ j.#.$.M w x ..3.t m ~ N C #.l.C B B w v T.>XQ.}.,XX., : : - * * lX:X&X[.u.-XwX/.{  X1XwXJ r.7 >XP.,X0X4.9X4X,XwX*.DXHX",
"gXAXsXxXlXlXdX~.fXN.+.Z.M B m #.| Z w k e N ..B x | x.6X!.ZXc.@.@.9 B |.3XR.a.| | l 8 6 : * > n .X1XZ.I &X2X_.* 1X[.6.>XC.= h 4XdX2X>X&X$X9X.X:XHXSX",
"gXSX>XcXxXdXxXcXdXB B `.B M N b m p w w k l 8 B y m $.z.1XC.x | 2. .3.'.wXk.-.M  .1 : : > : : 6 a.1X[.S.:XwX+ - lXzXN.].S., w a.>X>XqXqXlXqXqXZ.DXuX",
"gX5X2XcXxXxXx.r.C e M M M m m x x w 6 6 8 o.: : e c @.P C r w t B m 4.XX.X6.z 8 Z , 8 = > : : : nXqXlX1X1X9X8 k Q.: >X>Xd - 8 ] >XdX2XlX2XlXS.).HXAX",
"6X5X2XdXxXfXV x 8 w , 1 l y v 6 @.w 6 6 8 p : p l @.jXC C w 6 r z l.J.'.R.oX{ Z > a , ; , > 7 e }.lXdX1X2Xi : w xXW ,X2XK.k b ] zX2XdXlXlX1XG.E.SX5X",
"v.gX:XzXsXbXx w k w w k w l l x x w ..@.o.U = 9 >.z hXB t v k k B !.xX'.E 9.^.! o.KX, , : k 7 [ 1X&X,XJ.,X2X/.e.xXV.c W c.r > ~ - h.OXdX0X*XK.8.KXAX",
"k.) [ zXcXO.t 8 8 w v w 6 m t m r e l M z #.P l w M 8 B e M y h.| ! xX{.E 8.^.E.' #.C +.e w C.,X9X,X/.,X1X7X[.=X1X2X0 Q qX=XZ._.V.0 6 ~.>XU f.p.SX@X",
"Q j W qXcX;.$.x l l k l M l v A w , M k = > v e l P M y 6 r I 2XO.| Z.'.8.k.].1XW >XI.:XuXY 1.O eX;.OXS.$X1X(.@X@X[.V v.0X.X:XdXdX&X2XlXf.2.y.[.9.{ ",
"V i W.nXcXcXV.@.A.XXtX+.+.l M @.x @.nXb 8 8 a f.v P y | 9 m Z lX4X| jX'.0.N.r.m * * a k _ %X9 7 ,.a @ &Xn.>X>X< + #Xl.0.lX1X2XhXdXdX>XeX3.-.+X<XJ O ",
"#.w.#XlXlXlXz.l.lXdXxXsXy...$...o.P b o.I 5 OXr.@.U f z., w ..u.o.:.W %.g S g W.3 i ! H 4XK.O.( ,.c -.G.4.h.+ O X q j.[..X1XW.W.qXw.4XqX,X%X=X1Xr.;.",
"x.f.,XmXxXcXcXxXcXlXxXbX;.@.$.P Z : z v.C 7 u.,Xe L a a I c =X;.;XrXu   s o 2 g +   2 C.E.lXV.( 2._ @.4.L.,.& X 4 U x.S.).mX:X,XQ.7 n ;X:X) /.).5X+X",
"@X*XeX0XcXcXcXxXxXzXxXbXy.$.o...a.x #.@Xb 5 k y e 8 8 , p x 1XN x b +.%.^ ' L B.W 0 G %X_ 8 & 4 * - X n #.;.9 9 Y 0 p.r.Z.wXqXd.*Xk 7 2.,X0 N Q.KX5X",
"6X6X3XnXcXcXxXcXxXxXxXVX@X+.y /.d B a.$.w : e t l k p , k k =.= b o.o.9.D E i *.B.! p.<Xa.C ; 4 0 + 5 O.1.c , t e X G.,X: : y.& p n u.n v 5 e R SXKX",
"6X+XA.nXcXcXxXxXlXcXcXsXxXjXCXxXvXlXnXS.uX@.:./.c.c M 5 u.~.N 6.y.].8.9.s E 4 B.7.` Y w r c 8 8 3 7 d 0 b I 8 n.* c w :X>.7 & & c f...c 1.8 k a.HXSX",
"+Xy.3XdXMXcXcXxXzXcXcXcXcXcX[..XcXnXdXnX>XM H U v.G.7XY bXxXlX{. X'.s 6.L ^ D =.T.b L #.H w 0 8 * 5 7 O n ; 0 C - C , }._ * : * - : 4 v C.I e ).HXAX",
"v.h Z.NXNXcXvXcXvXcXcXcXcXcXlXlXzXlXMX2X4X8  .| D.B u.e W.x.a.I #.[ '.9.V E E E B.w r c ] w e 0 5 + < ; p - ~ 9 d 6 &XS.z , 7 & 4 5 A.N G q ^ ].HXAX",
"K.c.!.lXcXcXcXcXvXcXvXcXxXqXlXlXkXzXkX#.x t r y m y y r kXhXt.~ d w.(.9.f D s D h.1 6 7 7 r 6 6 : & O @ 4 # ; : O K .X+.w , - = 8 Q.D @.J.C.S.j.AXuX",
"v.w.&X<X1X0XkXkXkXkX1X<XsX>X[.1XsXkX1X0Xg.W wX#Xh.+.g.r.bXkX7X!.<X!.`.9.G Q E %.k.Z.x.W _ n.[ O.X.-.Y L Y 2.3.T b H ;.:.*.:.h.,.f.k.Z.M.#XS.@XZ.+XFX",
"@X@X).1XxXkXkXbXkXxXkXkXxXbXiXhXkX7X0XkXqX,XqXqXlXwXxX0XbX0XlXlXdXkX.Xq.J 7.}.0X] U ) U ) I ~ n v t F c M.^ D.<.n 5 = ,X0X~ _ ) 2Xt.1XqX0X}.}.!.4XAX",
"6Xc.l.kXbXcXcXxXbXcXcXcXcXxXxXjXxXkXxXcXqXqXbXkXhXwXdX1XlXkX0XxXxXxX7Xq.h 9.{..X XQ _ ^ { P U F c e e N G.P.rXV.B.9 6 r.:X! ! ! W _ Q lXlXlXlX|.AXHX",
"~.6X@XkXbXcXcXcXcXcXcXcXcXbXxXjXbXkXcXcXrXqXlX.XqX>X}.0XnXlX1XbXlX0XkX'.8.0. X}.Q G ~ v.v x ( F c e e F r H V I ~ P.p ~ ~ [ ^ ~ W L T.lXlXlXqX&XgXuX",
"z.+XQ.iXsXbXcXxXvXbXbXxXVXxXxXxXxXxXMXcXqXlXcXcXzXlXbXkXkXxXcXbXxXlXzXXX*.0.{.kX) W ) N M l U U H a Y F X.U $Xg.&.1X/.>Xp.C V !.Q U |.qX2XlXlX2XAX;X",
"w.A.A.1XxXvXcXzXvXbXbXbXbXxXbXxXxXvXvXvXMXlXcXcXrXlX0XhXsXkXcXcXcXkXzX'.N.k.T.kXp.J 1XK k 7 E R.(.<.T G.,.$Xj.%XOXrXwXvXa.K e.[ L {.qX>XqXnXlX2X;XuX",
"W ;.C.,XcXMXzXxXbXkXxXbXbXxXxXVXcXcXMXNXmXMXnXzXlXzXkXkXkXkXsXlXlXzXkX{.0.T.}.|.wX.X6.n ~ >XQ.].E.T & H 5 -X#X#XC - c z.r [.W ;.)  X}.>X0XlXdXdX;X6X",
"f ) _ ,XcXcXcXcXkXkXhXbXjXVXVXcXcXvXcXNXNXnXMXzXlXzXlX,X0XiXsX0XqXNXlXkX{.T.{.{.1X0X{.W y.{.k.p.s.H.5 9 6 1.rXf.W.i =X`.#.wXE.Y g.}.1X9X1X0XMX!.d u.",
"{ j i s Q.zXbXcXkXiXhXhXxXbXVXvXvXvXvXNXNXNXmXvXnXnXlXnXvXhXcXNXcXnXzXlX XR.|.hXkX X.X.Xh  X7XbXeX%XP.H.F 0 <.+.) K.!.g.O.,.S.>.n 8.}.9XwX1XkX[.j.d ",
"h # i f %.cXxXxXjXjXhXjXjXxXcXvXvXvXbXNXNXMXNXNXzXzXlXlXNXkXvXvXcXzXzXlX.XR..X.X0X1X7X X^.{.c _.` ! %XyX1.n ( Y Y F 9 e Y / , 0 r ^ 1X2X1XwXwXW.$ h ",
"O s ] Z.8.kXcXbXhXkXjXhXbXxXVXbXvXZXvXNXNXnXNXMXzXzXzXNXmXZXSX,XvXzXbXzX}.^. X.X|.T. X.X X0XO.}.d.*X-X=XT @.Y G.I P.J B.' ^., 5 ! E kXwX,X9X1X2XV J ",
"$ . &XnXsXbXcXxXxXjXiXiXVXbXxXcXvXZXNXzXmXMXNXNXcXlXNXnXzXCX;XNXkXzXzXkX}.(. XsX.X1X.X]. X^ I .XtX,X,X=XC.yX_ O.@.A.(._.1XkX{.= R.[..X0X,XwXlX,.b.y.",
";   2XlXxXcXcXvXxXxXxXhXVXvXxXvXNXZXZXNXmXNXBXmXmX1XzXzXlXzXmXlX7XkXMXlX}.].0X1XlX>X1X1X}.0X0XrXqX,X%Xh.L.-X8XG.( ..;.^.}.1X9.K.[.1X X0XwXqXk.;.y.@X",
"i o >XxXlXvXvXcXbXiXkXxXVXvXvXvXvXNXZXBXmXNXNXmXNXzXzXNXNXzXnXlXbXzXMXqX[.^.qXkXqX1X7X|. X}.0XyX>X,XH 6 M O.= 6 F N #.Q.].[.0XOX}..X_.wX>XBXb.2Xt.5X",
"2   <XkXlXlXlXcXxXkXbXxXcXcXZXvXNXNXCXmXBXmXmXmXBXmXmXNXNXBXBXmXnXlXnXqX^ E.qXqXqXwXlX2X7X}.` %X>XwX( I.eXO.e 1 y y K wX>XmXE.^ +X=X,X>XqXrXJ /._ { ",
"f + 6.W.}.lX,X,X2XbXmXMXvXNXNXvXzXzXmXmXrXmXmXmXrXrXrXrXnXBXCXBXBXmXqX,XD.W.qX9X3Xh }.=X}.yXW.=XeX%X:.G.@.P.#.1 y I r.=XW.d I i.G O.Q.qX>X3X6.}.h ;.",
"h J [ t.w.b.;.e.e.x.{ rXcXzXmXzXMXzXnXnX8XrXrXeXeXeXtXeXrXrXtXeXrXrXeX#Xi.l.0.7.M.^ g /.D.S.s.,.$X2.` H.H.P.B y F I.;X,X#XW.i.I >.s._.#X-X-XW.).o ] ",
"J Q [ 6.b.t.t.y.w.t.6.>XzXlXlX1X1XdXzXrX%XeX%X=X%X%X8X8X%XrXI.P.4X-XS.p.<.i.*.=.=.<.F.i.7.%.=.-.t ..3.H.G.G.X.L.M.M.=.%XJ.S.g.C.] J.V.S.S D N.4 o ) ",
"3 4 ) { 6.w.[ 6.6.5.) /..Xz.,X1X[.8.S.%XH.J.3.G.H.P.H.D.T v <.M.C.J.g.7 F.*.^ =.=.T =.i.=.=.4 t -.H Y 3.O.n Y I ` / W r.D ` J T =.W f ;.' / w.) @ d ",
">.4 Q Q h J S W Q h h l.Z./ Z.l.6.&.] >.-.f.Y ,.2.Y 2.1.2.2.<.<.f.D / G L L f G I T f ` Y T 5 4 n n d H f.>.2 + o @ . + . + o + 4 4 4 G n =.J h J.0 "
};
