/* XPM */
static char *gun0[] = {
/* columns rows colors chars-per-pixel */
"101 101 51 1 ",
"  c black",
". c #070707",
"X c #0B0B0B",
"o c #170F07",
"O c #171F07",
"+ c #1F170B",
"@ c #0C0B12",
"# c #131313",
"$ c #1B1B1B",
"% c #2F1B0B",
"& c #2B230F",
"* c #372313",
"= c #332B13",
"- c #3F2F17",
"; c #232323",
": c #272727",
"> c #2F2F2F",
", c #373737",
"< c gray23",
"1 c #430000",
"2 c #5B0000",
"3 c #670000",
"4 c #730000",
"5 c #432F1B",
"6 c #5F4323",
"7 c #574333",
"8 c #5F4B37",
"9 c #67533F",
"0 c #434343",
"q c gray28",
"w c gray31",
"e c gray34",
"r c #5B5B5B",
"t c #775F4B",
"y c gray39",
"u c gray42",
"i c #6F6F6F",
"p c #777777",
"a c gray50",
"s c #9B0000",
"d c #875733",
"f c #836B57",
"g c #8B735B",
"h c #838383",
"j c #8B8B8B",
"k c #979797",
"l c #A7A7A7",
"z c gray67",
"x c gray70",
"c c gray78",
"v c LightGray",
/* pixels */
"                                                                                                     ",
"                                                                                                     ",
"                                                                                                     ",
"                                                                                                     ",
"                                                                                                     ",
"                                                                                                     ",
"                                                                                                     ",
"                                                                                                     ",
"                                                                                                     ",
"                                                                                                     ",
"                                                                                                     ",
"                                                                                                     ",
"                                                                                                     ",
"                                                                                                     ",
"                                                                                                     ",
"                                                                                                     ",
"                                                                                                     ",
"                                                                                                     ",
"                                                                                                     ",
"                                                                                                     ",
"                                                                                                     ",
"                                                                                                     ",
"                                                                                                     ",
"                                                                                                     ",
"                                                                                                     ",
"                                                                                                     ",
"                                                                                                     ",
"                                                                                                     ",
"                                                                                                     ",
"                                                                                                     ",
"                                                                                                     ",
"                                                                                                     ",
"                                                                                                     ",
"                                                                                                     ",
"                                                                                                     ",
"                                                                                                     ",
"                                                                                                     ",
"                                                  <y                                                 ",
"                                          eqqqqqq $< >>,,qwe                                         ",
"                                        0$@#$;,<<>$,#o#$,0rrq0                                       ",
"                                       0&@@#$;,,,>@@=o#$;<qyq<0                                      ",
"                                      0&X@@#$;,,,>@@=o#@;,0er<;0                                     ",
"                                      0&X@X#$;,,,>@@=&#@$>,qy0;<                                     ",
"                                     0&+X@X#$:,,,>@@&&#@$:>0ew>;0                                    ",
"                                     <=X@@X#$:,,,:@@&&#@@$>,qq,;<                                    ",
"                                    0&&X@@##;:,,,:@@&&+o@$:,00<:#0                                   ",
"                                    0=+X@X##;:,,,:@@&&+o@$:>,<<>$0                                   ",
"                                   0&&XX@X#$;:,,,:XX&&+o@$::>,<0;#0                                  ",
"                                   0=+X@@X#$::,,,;XX&&++@@$;>,<0>$0                                  ",
"                                  ,&&XX@@X#$::,,,;XX&&++@@$;>>,<,;#,                                 ",
"                                  0&+XX@X##$:>,,,;XX&&++@@$;:>,,0;$0                                 ",
"                                 ,&&XXX@X#$$:>>,>$XX&&++o@$;:>>,0,;#,                                ",
"                                 &=+XX@@X#$$:>>,>$XX&&++o@@$:>>,<w;#,                                ",
"                                ,&&X#X@@X#$$:>>,>$XX&&++o@@$:>>><q;$#,                               ",
"                                0=+X#X@XX#$$:>>>>$XX&&++o@@$;:>><q,;;0                               ",
"                               0&&X##X@XX$$$:>>>>$XX&&++oX@$$:>><qw;#;0                              ",
"                               0=+X#X@@XX$$$:>>>>$XX&&+++X@@$:>>,qw;$@0                              ",
"                              ,&&X#$X@@XX$$$:>>>>$XX&&+++X@@$$>>,<q,;@;,                             ",
"                              0=+X##X@XXX$$$:>>>>$XX&&+++X@@$$:>><qw;#@0                             ",
"                             ,&&X#$#X@XXX$$$:>>>>#XX&&+++X@@$$:>>,0wq$@;,                            ",
"                             ,=+X#$X@@XXX$$$:>>>>#XX&&++&X@@$$:>>,<wy;@@,                            ",
"                            ,&&X#$$X@@XXX$$$:>>>>#XX&&++=X@@#$$:>>,wiq#@$,                           ",
"                          #;>,<<<000000000,,,rirww0kww000000000000000,,00w,,                         ",
"                      3s1#;>,>::::::::::::::rirrw00xirrw0r::::::::::::::>yw0,1s3                     ",
"                    s31d#;>,0:::$12244221$$rirrrw0rhiirrw0r$$12244221$$$:>yy0,d13s                   ",
"                   31d6#;>,<:$$11-666--22100000000000000000r122--666-11$$>0iw0,6d13                  ",
"                  216q#;>,<0$#1-:>,00,,,,,,,,,,,,,,,,,,,,,,,,,,,0000r--1##>yyw0,q612                 ",
"              >> 21qq#;>,,,,,,,,,,,,>>>>>;>>>>>>;;;;>>>>;;;>>>>>>,,,,,000riwiyw0,qq12 ,q             ",
"               ##qqr>$;,>;;;$$$;;;;;;;;;$$$$$$$$$$$$$$$$$$$$$$$$$$$$$$$;,0wriiyw0>rqr:,              ",
"              ##qr>##;>>;;$$X$;;>>,,,::$$@$><qeeeeeeeeqq<>$@@@@@:>0ww0,$$;,0yhiy0,:>ir:,             ",
"             ##qr>#@#>>;;$@.&;><0qwwqwq,>$$@$><qeeqqq<<>$$@#:><qqryiiyw,,$;,uyiiw,::>ir:,            ",
"            ##qr>#.#$>;;$XO::>,<0qw00qqqeeq>@@$$>>>>>>>$XX:>>;><0wrypxvkw<$;,yiiy0,:#>ir:,           ",
"           ##qr>#.@#$>;$XO;;:>,<0q00<<<<qweeq>:@@$$$$$#@$:;$$;><<0wwrijxvi#$>0yiyw,>:#>rr:,          ",
"          ##qr>#.@@#$;;##%;;:>,<00<,,,,,0q0,,;$$@@@@@@@$$$$$$;>>><00qqruhkr<$,wyy0,$$:#>rq:,         ",
"         ##,r>$.@@@#$;;@%%:;:>,,,,,,,,,,,>>:$;;:$>>qrpy>>>:#$$$:*5><000wriae$$,0yw,$$$:$>q,::        ",
"        ##,r>$#.@.@#$;@@X%*;:>>:::;>>>>>>:$$;;;;;:>>0q,,<<<>:#$$++::><00wryie:;,yw0$$$$#$>q,::       ",
"       ##,r>$#.@.@@#$;@@X#%::::>>>:;;:::$$$;;;;$$$$$$$>>><0<,:##@@#>>:>,0wwywq$>ww0#$$$$#$>q,::      ",
"      ##,r>$#X.@.@@#$@+@@X#%:;,qyly,:##$$;;;;;;$>:::,i:>,,000,>$@$><rr<>,0wewq$>w00##$$$$#$>q,::     ",
"      #,r>$#XX...@@#$o+@@X#%:,,,qry0>:#$$;;;;;;$$$$$$$:>,,000,>$@$>qrpw,,00wqqw,w00###$$$$#$>q,:     ",
"     ##>r>##X....@@@$o+@@@#%*,,><<<>:#$:;;;;;;;$>>;;,i>>>,<0q0,>#$:qpcp0>,00qq,,00#####$$$$#:,>$$    ",
"     #,r>$#XX....@@@$o&o@@#%*,>>>:$$#$;:;;;;;$$#######$>>,<0q0,>#$:qrpgw>,,,,,:,0#######$$$#$><,$    ",
"    ##>r>$#XX....@@@@o&+@@X#;>>>;:;#$;::::::::::::::::::,<00qq0,:#$<8fgw-,-&::$,########$$$$#:,>$$   ",
"    #,r>$#XX....X@@@@o=+o@X##;$;;;#$:;::;::;;##XXXX######::>,,<<<;#:<9tw&&&$$$###########$$$#$><,$   ",
"#  ##>r>$#XX....XXX@@o=&ooX##;$;;#$;:;::;$$####XXXX#########:,<<<,:#:<70&XX###X##:#######$$$#$:,>$$  ",
"#  #,r>$##XX.....@XX@@==&+o@X$###$::::$$$#@@@@@@@.X###########:,q0,:#;:>XXXXXXX###########$$$#$><,$  ",
"#  #>r>$#XXX.....@@X@@+-=&++@#$$$:::$#@@@@@@@@@@@.X############::<q<,:;;#XXXXX############$$$#$:,>$  ",
"# ##>r>$#XXX.....@@@@@@-==&+@#$$:::$@@@@@@@@@@@@@.X##############:><000,#XXXXX##$##########$$#$:,>$$ ",
"# #>r>$##XXX.....@@@@@@+-=&+@$$;::#@@@@@@@@@@@@@@.X###############;:<qrr0XXXX##############$$$#$>q>$ ",
"# #>r>$##XXX.....@@X@@X@--+@$$$::@@@@@@@@@@@@@@@@.X#$##############;:<ria0XXX###$##########$$$#$><>$ ",
"# #>r>$##XXX.....@@@@XX@+++$$$$:#@@@@@@@@@@@@@@@@.X#$#####$#########;:qiauXX#####$#######:#$$$#$:,>$ ",
"###>r>####XXX....@@@@@@@@++$$::#@@@@@@@@@@@@@@@...X#######$$$#$######;:wii:#######$#########$$##:,>$$",
"##>r>$###XXXX....@@@@@@@@$$$:##@@@@@@@@@@@@@@@@...X#########$#########;,ei0###$###$:######:#$$###>r>$",
"##>r>$##XXXXX....@@@@@@@$$$$:#@@@@@@@@@@@@@@@@@...X#########$##$#$$####;eiq###$$###:########$$$##>q>$",
"##>r>$##XXXXX....@@@@X@@$$$:#@@@@@@@@@@@@@@@@@@...X###############$$###;,er>#######$########$$$##><>$",
" #>r>$##XXXXX....@X@@@@@$$:#@@@@@@@@@@@@@@@@@@@.X.X##$$##$###$#$##$######0r0###$###$:##:####$$$##:<>$",
" #>r>$##XXXXX....@X@@@@;$$#@@@@@@@@@@@@@@@@@@@@.X.:pz####$$#######$#$#$##;r0###$###$########$$$##:,>$",
" #>r>$##XXXXX.....X@@@@$$:#@@@@@@@@@@@@@@@@@@..XX$#,iz###################;0e#######$::#######$$##:,>$",
" #>r>##XXXXXXX....@@@@;$$#@@@@@@@@@@@@@@@@@@@..XX$#:,a##########$#########;e>###########:####$$##:,>$",
" #>r>##XXXXXXXX...@@@@$$:#@@@@@@@@@@@@@@@@@@@..XX###:i##########$$########;00################$$##:,>$",
" #>r>##XXXXXXXX...@@@@$$#@@@@@@@@@@@@@@@@@@@@@.XX####r###########$##$######;0######$#########$$##:,>$",
" #>r>##XXXXXXXX...@@@@$$#@@@@@@@@@@@@@@@@@@@@@@..####0#####################;0#######.##:#####$$##:,>$"
};
