/* XPM */
static char *gun3[] = {
/* columns rows colors chars-per-pixel */
"101 101 53 1 ",
"  c black",
". c #070707",
"X c #0B0B0B",
"o c #0B0B0F",
"O c #170F07",
"+ c #171F07",
"@ c #1F170B",
"# c #131313",
"$ c #1B1B1B",
"% c #2F1B0B",
"& c #2B230F",
"* c #372313",
"= c #332B13",
"- c #3F2F17",
"; c #232323",
": c #272727",
"> c #2F2F2F",
", c #373737",
"< c gray23",
"1 c #430000",
"2 c #5B0000",
"3 c #670000",
"4 c #730000",
"5 c #432F1B",
"6 c #5F4323",
"7 c #574333",
"8 c #5F4B37",
"9 c #67533F",
"0 c #434343",
"q c gray28",
"w c gray31",
"e c gray34",
"r c #5B5B5B",
"t c #775F4B",
"y c gray39",
"u c gray42",
"i c #6F6F6F",
"p c #777777",
"a c gray50",
"s c #9B0000",
"d c #875733",
"f c #D75F0B",
"g c #F37317",
"h c #836B57",
"j c #8B735B",
"k c #838383",
"l c #8B8B8B",
"z c #979797",
"x c #A7A7A7",
"c c gray67",
"v c gray70",
"b c gray78",
"n c LightGray",
/* pixels */
"                                                                                                     ",
"                                                                                                     ",
"                                                                                                     ",
"                                                                                                     ",
"                                                                                                     ",
"                                                                                                     ",
"                                                                                                     ",
"                                                                                                     ",
"                                                                                                     ",
"                                                                                                     ",
"                                                                                                     ",
"                                                                                                     ",
"                                                                                                     ",
"                                                                                                     ",
"                                                                                                     ",
"                                                                                                     ",
"                                                                                                     ",
"                                                                                                     ",
"                                                                                                     ",
"                                                                                                     ",
"                                                                                                     ",
"                                                                                                     ",
"                                                                                                     ",
"                                                                                                     ",
"                                                                                                     ",
"                                                                                                     ",
"                                                                                                     ",
"                                                                                                     ",
"                                                                                                     ",
"                                                                                                     ",
"                                                                                                     ",
"                                                                                                     ",
"                                                                                                     ",
"                                                                                                     ",
"                                                                                                     ",
"                                                                                                     ",
"                          ffggffgg                                  ggffggff                         ",
"                         fgffffffgg               <y               ggffffffgf                        ",
"                        1fffffffffg       eqqqqqq $< >>,,qwe       gfffffffff1                       ",
"                        ffffffgffffg    0$o#$;,<<>$,#O#$,0rrq0    gffffgffffff                       ",
"                        fgfffgggfffg   0&oo#$;,,,>oo=O#$;<qyq<0   gfffgggfffgf                       ",
"                       1fgffffgfffgf  0&Xoo#$;,,,>oo=O#o;,0er<;0  fgfffgffffgf1                      ",
"                       11fgfffffffgf  0&XoX#$;,,,>oo=&#o$>,qy0;<  fgfffffffgf11                      ",
"                       11fgffffffgf2 0&@XoX#$:,,,>oo&&#o$:>0ew>;0 2fgffffffgf11                      ",
"                       121fffggggf22 <=XooX#$:,,,:oo&&#oo$>,qq,;< 22fggggfff121                      ",
"                       11211ffff22240&&Xoo##;:,,,:oo&&@Oo$:,00<:#04222ffff11211                      ",
"                       21232222223240=@XoX##;:,,,:oo&&@Oo$:>,<<>$04232222223212                      ",
"                       1232332332320&&XXoX#$;:,,,:XX&&@Oo$::>,<0;#0232332332321                      ",
"                       1232322332420=@XooX#$::,,,;XX&&@@oo$;>,<0>$0242332232321                      ",
"                        2323223322,&&XXooX#$::,,,;XX&&@@oo$;>>,<,;#,2233223232                       ",
"                         22323222 0&@XXoX##$:>,,,;XX&&@@oo$;:>,,0;$0 22232322                        ",
"                          222222 ,&&XXXoX#$$:>>,>$XX&&@@Oo$;:>>,0,;#, 222222                         ",
"                                 &=@XXooX#$$:>>,>$XX&&@@Ooo$:>>,<w;#,                                ",
"                                ,&&X#XooX#$$:>>,>$XX&&@@Ooo$:>>><q;$#,                               ",
"                                0=@X#XoXX#$$:>>>>$XX&&@@Ooo$;:>><q,;;0                               ",
"                               0&&X##XoXX$$$:>>>>$XX&&@@OXo$$:>><qw;#;0                              ",
"                               0=@X#XooXX$$$:>>>>$XX&&@@@Xoo$:>>,qw;$o0                              ",
"                              ,&&X#$XooXX$$$:>>>>$XX&&@@@Xoo$$>>,<q,;o;,                             ",
"                              0=@X##XoXXX$$$:>>>>$XX&&@@@Xoo$$:>><qw;#o0                             ",
"                             ,&&X#$#XoXXX$$$:>>>>#XX&&@@@Xoo$$:>>,0wq$o;,                            ",
"                             ,=@X#$XooXXX$$$:>>>>#XX&&@@&Xoo$$:>>,<wy;oo,                            ",
"                            ,&&X#$$XooXXX$$$:>>>>#XX&&@@=Xoo#$$:>>,wiq#o$,                           ",
"                          #;>,<<<000000000,,,rirww0zww000000000000000,,00w,,                         ",
"                      3s1#;>,>::::::::::::::rirrw00virrw0r::::::::::::::>yw0,1s3                     ",
"                    s31d#;>,0:::$$$$$$$$$$$rirrrw0rkiirrw0r$$$$$$$$$$$$$:>yy0,d13s                   ",
"                   31d6#;>,<:$$###########00000000000000000r##########$$$>0iw0,6d13                  ",
"                  216q#;>,<0$###:>,00,,,,,,,,,,,,,,,,,,,,,,,,,,,0000r#####>yyw0,q612                 ",
"              >> 21qq#;>,,,,,,,,,,,,>>>>>;>>>>>>;;;;>>>>;;;>>>>>>,,,,,000riwiyw0,qq12 ,q             ",
"               ##qqr>$;,>;;;$$$;;;;;;;;;$$$$$$$$$$$$$$$$$$$$$$$$$$$$$$$;,0wriiyw0>rqr:,              ",
"              ##qr>##;>>;;$$X$;;>>,,,::$$o$><qeeeeeeeeqq<>$ooooo:>0ww0,$$;,0ykiy0,:>ir:,             ",
"             ##qr>#o#>>;;$o.&;><0qwwqwq,>$$o$><qeeqqq<<>$$o#:><qqryiiyw,,$;,uyiiw,::>ir:,            ",
"            ##qr>#.#$>;;$X+::>,<0qw00qqqeeq>oo$$>>>>>>>$XX:>>;><0wrypvnzw<$;,yiiy0,:#>ir:,           ",
"           ##qr>#.o#$>;$X+;;:>,<0q00<<<<qweeq>:oo$$$$$#o$:;$$;><<0wwrilvni#$>0yiyw,>:#>rr:,          ",
"          ##qr>#.oo#$;;##%;;:>,<00<,,,,,0q0,,;$$ooooooo$$$$$$;>>><00qqrukzr<$,wyy0,$$:#>rq:,         ",
"         ##,r>$.ooo#$;;o%%:;:>,,,,,,,,,,,>>:$;;:$>>qrpy>>>:#$$$:*5><000wriae$$,0yw,$$$:$>q,::        ",
"        ##,r>$#.o.o#$;ooX%*;:>>:::;>>>>>>:$$;;;;;:>>0q,,<<<>:#$$@@::><00wryie:;,yw0$$$$#$>q,::       ",
"       ##,r>$#.o.oo#$;ooX#%::::>>>:;;:::$$$;;;;$$$$$$$>>><0<,:##oo#>>:>,0wwywq$>ww0#$$$$#$>q,::      ",
"      ##,r>$#X.o.oo#$o@ooX#%:;,qyxy,:##$$;;;;;;$>:::,i:>,,000,>$o$><rr<>,0wewq$>w00##$$$$#$>q,::     ",
"      #,r>$#XX...oo#$O@ooX#%:,,,qry0>:#$$;;;;;;$$$$$$$:>,,000,>$o$>qrpw,,00wqqw,w00###$$$$#$>q,:     ",
"     ##>r>##X....ooo$O@ooo#%*,,><<<>:#$:;;;;;;;$>>;;,i>>>,<0q0,>#$:qpbp0>,00qq,,00#####$$$$#:,>$$    ",
"     #,r>$#XX....ooo$O&Ooo#%*,>>>:$$#$;:;;;;;$$#######$>>,<0q0,>#$:qrpjw>,,,,,:,0#######$$$#$><,$    ",
"    ##>r>$#XX....ooooO&@ooX#;>>>;:;#$;::::::::::::::::::,<00qq0,:#$<8hjw-,-&::$,########$$$$#:,>$$   ",
"    #,r>$#XX....XooooO=@OoX##;$;;;#$:;::;::;;##XXXX######::>,,<<<;#:<9tw&&&$$$###########$$$#$><,$   ",
"   ##>r>$#XX....XXXooO=&OOX##;$;;#$;:;::;$$####XXXX#########:,<<<,:#:<70&XX###X##:#######$$$#$:,>$$  ",
"   #,r>$##XX.....oXXoo==&@OoX$###$::::$$$#ooooooo.X###########:,q0,:#;:>XXXXXXX###########$$$#$><,$  ",
"   #>r>$#XXX.....ooXoo@-=&@@o#$$$:::$#ooooooooooo.X############::<q<,:;;#XXXXX############$$$#$:,>$  ",
"  ##>r>$#XXX.....oooooo-==&@o#$$:::$ooooooooooooo.X##############:><000,#XXXXX##$##########$$#$:,>$$ ",
"  #>r>$##XXX.....oooooo@-=&@o$$;::#oooooooooooooo.X###############;:<qrr0XXXX##############$$$#$>q>$ ",
"  #>r>$##XXX.....ooXooXo--@o$$$::oooooooooooooooo.X#$##############;:<ria0XXX###$##########$$$#$><>$ ",
"  #>r>$##XXX.....ooooXXo@@@$$$$:#oooooooooooooooo.X#$#####$#########;:qiauXX#####$#######:#$$$#$:,>$ ",
" ##>r>####XXX....oooooooo@@$$::#ooooooooooooooo...X#######$$$#$######;:wii:#######$#########$$##:,>$$",
" #>r>$###XXXX....oooooooo$$$:##oooooooooooooooo...X#########$#########;,ei0###$###$:######:#$$###>r>$",
" #>r>$##XXXXX....ooooooo$$$$:#ooooooooooooooooo...X#########$##$#$$####;eiq###$$###:########$$$##>q>$",
" #>r>$##XXXXX....ooooXoo$$$:#oooooooooooooooooo...X###############$$###;,er>#######$########$$$##><>$",
" #>r>$##XXXXX....oXooooo$$:#ooooooooooooooooooo.X.X##$$##$###$#$##$######0r0###$###$:##:####$$$##:<>$",
" #>r>$##XXXXX....oXoooo;$$#oooooooooooooooooooo.X.:pc####$$#######$#$#$##;r0###$###$########$$$##:,>$",
" #>r>$##XXXXX.....Xoooo$$:#oooooooooooooooooo..XX$#,ic###################;0e#######$::#######$$##:,>$",
" #>r>##XXXXXXX....oooo;$$#ooooooooooooooooooo..XX$#:,a##########$#########;e>###########:####$$##:,>$",
" #>r>##XXXXXXXX...oooo$$:#ooooooooooooooooooo..XX###:i##########$$########;00################$$##:,>$",
" #>r>##XXXXXXXX...oooo$$#ooooooooooooooooooooo.XX####r###########$##$######;0######$#########$$##:,>$",
" #>r>##XXXXXXXX...oooo$$#oooooooooooooooooooooo..####0#####################;0#######.##:#####$$##:,>$"
};
