/* XPM */
static char *gun4[] = {
/* columns rows colors chars-per-pixel */
"101 101 88 1 ",
"  c black",
". c #070707",
"X c #0B0B0B",
"o c #170F07",
"O c #171F07",
"+ c #1F170B",
"@ c #0C0B12",
"# c #131313",
"$ c #1B1B1B",
"% c #2F1B0B",
"& c #2B230F",
"* c #372313",
"= c #332B13",
"- c #3F2F17",
"; c #232323",
": c #272727",
"> c #2F2F2F",
", c #373737",
"< c gray23",
"1 c #430000",
"2 c #4D0000",
"3 c #4F0000",
"4 c #500000",
"5 c #5B0000",
"6 c #5C0000",
"7 c #5D0000",
"8 c #5E0000",
"9 c #5F0000",
"0 c #5D0303",
"q c #5E0303",
"w c #530900",
"e c #600000",
"r c #610000",
"t c #630000",
"y c #650000",
"u c #670000",
"i c #690F0F",
"p c #730000",
"a c #621102",
"s c #432F1B",
"d c #7F2604",
"f c #5F4323",
"g c #574333",
"h c #5F4B37",
"j c #67533F",
"k c #434343",
"l c gray28",
"z c gray31",
"x c gray34",
"c c #5B5B5B",
"v c #775F4B",
"b c gray39",
"n c gray42",
"m c #6F6F6F",
"M c #777777",
"N c gray50",
"B c #9B0000",
"V c #842904",
"C c #972E05",
"Z c #923205",
"A c #9C3105",
"S c #B04009",
"D c #875733",
"F c #D65E0A",
"G c #D75F0B",
"H c #D8600B",
"J c #D9600B",
"K c #DB610C",
"L c #DB620C",
"P c #DA630E",
"I c #DC620D",
"U c #DD630D",
"Y c #DE640E",
"T c #DF650E",
"R c #E0650F",
"E c #EF7015",
"W c #F17116",
"Q c #F37317",
"! c #836B57",
"~ c #8B735B",
"^ c #838383",
"/ c #8B8B8B",
"( c #979797",
") c #A7A7A7",
"_ c gray67",
"` c gray70",
"' c gray78",
"] c LightGray",
/* pixels */
"                                                                                                     ",
"                                                                                                     ",
"                                                                                                     ",
"                                                                                                     ",
"                                                                                                     ",
"                                                                                                     ",
"                                                                                                     ",
"                                                                                                     ",
"                                                                                                     ",
"                                                                                                     ",
"                                                                                                     ",
"        QQQ                                                                                          ",
"      GGIYRTQ                                                                                QQQ     ",
"     GGGGGGGQG                                                                             QTRYIGG   ",
"    GQGGJHGGQQp                                                                           GQGGGGGGG  ",
"    GGGGWEUGGQuq                                                                         pQQGGHJGGQG ",
"   GQGGGEWLGGQuep                                                                       quQGGUEWGGGG ",
"   PQGGGGGGGGQu6i                                                                      peuQGGLWEGGGQG",
"   GGGGGGGGGQS5u9p                                                                     i6uQGGGGGGGGQP",
"    GQIGGGGQUA67up                                                                    p9u5SQGGGGGGGGG",
"    GGQQQGFKA7ur70                                                                    pu76AUQGGGGIQG ",
"     ZVGGGdC58uuep                                                                    07ru7AKFGQQQGG ",
"     115wa47u69u8p                                                                    peuu85CdGGGVZ  ",
"      1125uuy55r5p                                                                    p8u96u74aw511  ",
"       113t7ru59p                                                                     p5r55yuu5211   ",
"        559y6re5                                                                       p95ur7t311    ",
"         155555                                                                         5er6y955     ",
"                                                                                         555551      ",
"                                                                                                     ",
"                                                                                                     ",
"                                                                                                     ",
"                                                                                                     ",
"                                                                                                     ",
"                                                                                                     ",
"                                                                                                     ",
"                                                                                                     ",
"                                                                                                     ",
"                                                    <b                                               ",
"                                            xllllll $< >>,,lzx                                       ",
"                                          k$@#$;,<<>$,#o#$,kcclk                                     ",
"                                         k&@@#$;,,,>@@=o#$;<lbl<k                                    ",
"                                        k&X@@#$;,,,>@@=o#@;,kxc<;k                                   ",
"                                        k&X@X#$;,,,>@@=&#@$>,lbk;<                                   ",
"                                       k&+X@X#$:,,,>@@&&#@$:>kxz>;k                                  ",
"                                       <=X@@X#$:,,,:@@&&#@@$>,ll,;<                                  ",
"                                      k&&X@@##;:,,,:@@&&+o@$:,kk<:#k                                 ",
"                                      k=+X@X##;:,,,:@@&&+o@$:>,<<>$k                                 ",
"                                     k&&XX@X#$;:,,,:XX&&+o@$::>,<k;#k                                ",
"                                     k=+X@@X#$::,,,;XX&&++@@$;>,<k>$k                                ",
"                                    ,&&XX@@X#$::,,,;XX&&++@@$;>>,<,;#,                               ",
"                                    k&+XX@X##$:>,,,;XX&&++@@$;:>,,k;$k                               ",
"                                   ,&&XXX@X#$$:>>,>$XX&&++o@$;:>>,k,;#,                              ",
"                                   &=+XX@@X#$$:>>,>$XX&&++o@@$:>>,<z;#,                              ",
"                                  ,&&X#X@@X#$$:>>,>$XX&&++o@@$:>>><l;$#,                             ",
"                                  k=+X#X@XX#$$:>>>>$XX&&++o@@$;:>><l,;;k                             ",
"                                 k&&X##X@XX$$$:>>>>$XX&&++oX@$$:>><lz;#;k                            ",
"                                 k=+X#X@@XX$$$:>>>>$XX&&+++X@@$:>>,lz;$@k                            ",
"                                ,&&X#$X@@XX$$$:>>>>$XX&&+++X@@$$>>,<l,;@;,                           ",
"                                k=+X##X@XXX$$$:>>>>$XX&&+++X@@$$:>><lz;#@k                           ",
"                               ,&&X#$#X@XXX$$$:>>>>#XX&&+++X@@$$:>>,kzl$@;,                          ",
"                               ,=+X#$X@@XXX$$$:>>>>#XX&&++&X@@$$:>>,<zb;@@,                          ",
"                              ,&&X#$$X@@XXX$$$:>>>>#XX&&++=X@@#$$:>>,zml#@$,                         ",
"                            #;>,<<<kkkkkkkkk,,,cmczzk(zzkkkkkkkkkkkkkkk,,kkz,,                       ",
"                        uB1#;>,>::::::::::::::cmcczkk`mcczkc::::::::::::::>bzk,1Bu                   ",
"                      Bu1D#;>,k:::$$$$$$$$$$$cmccczkc^mmcczkc$$$$$$$$$$$$$:>bbk,D1uB                 ",
"                     u1Df#;>,<:$$###########kkkkkkkkkkkkkkkkkc##########$$$>kmzk,fD1u                ",
"                    51fl#;>,<k$###:>,kk,,,,,,,,,,,,,,,,,,,,,,,,,,,kkkkc#####>bbzk,lf15               ",
"                >> 51ll#;>,,,,,,,,,,,,>>>>>;>>>>>>;;;;>>>>;;;>>>>>>,,,,,kkkcmzmbzk,ll15 ,l           ",
"                 ##llc>$;,>;;;$$$;;;;;;;;;$$$$$$$$$$$$$$$$$$$$$$$$$$$$$$$;,kzcmmbzk>clc:,            ",
"                ##lc>##;>>;;$$X$;;>>,,,::$$@$><lxxxxxxxxll<>$@@@@@:>kzzk,$$;,kb^mbk,:>mc:,           ",
"               ##lc>#@#>>;;$@.&;><klzzlzl,>$$@$><lxxlll<<>$$@#:><llcbmmbz,,$;,nbmmz,::>mc:,          ",
"              ##lc>#.#$>;;$XO::>,<klzkklllxxl>@@$$>>>>>>>$XX:>>;><kzcbM`](z<$;,bmmbk,:#>mc:,         ",
"             ##lc>#.@#$>;$XO;;:>,<klkk<<<<lzxxl>:@@$$$$$#@$:;$$;><<kzzcm/`]m#$>kbmbz,>:#>cc:,        ",
"            ##lc>#.@@#$;;##%;;:>,<kk<,,,,,klk,,;$$@@@@@@@$$$$$$;>>><kkllcn^(c<$,zbbk,$$:#>cl:,       ",
"           ##,c>$.@@@#$;;@%%:;:>,,,,,,,,,,,>>:$;;:$>>lcMb>>>:#$$$:*s><kkkzcmNx$$,kbz,$$$:$>l,::      ",
"          ##,c>$#.@.@#$;@@X%*;:>>:::;>>>>>>:$$;;;;;:>>kl,,<<<>:#$$++::><kkzcbmx:;,bzk$$$$#$>l,::     ",
"         ##,c>$#.@.@@#$;@@X#%::::>>>:;;:::$$$;;;;$$$$$$$>>><k<,:##@@#>>:>,kzzbzl$>zzk#$$$$#$>l,::    ",
"        ##,c>$#X.@.@@#$@+@@X#%:;,lb)b,:##$$;;;;;;$>:::,m:>,,kkk,>$@$><cc<>,kzxzl$>zkk##$$$$#$>l,::   ",
"        #,c>$#XX...@@#$o+@@X#%:,,,lcbk>:#$$;;;;;;$$$$$$$:>,,kkk,>$@$>lcMz,,kkzllz,zkk###$$$$#$>l,:   ",
"       ##>c>##X....@@@$o+@@@#%*,,><<<>:#$:;;;;;;;$>>;;,m>>>,<klk,>#$:lM'Mk>,kkll,,kk#####$$$$#:,>$$  ",
"       #,c>$#XX....@@@$o&o@@#%*,>>>:$$#$;:;;;;;$$#######$>>,<klk,>#$:lcM~z>,,,,,:,k#######$$$#$><,$  ",
"      ##>c>$#XX....@@@@o&+@@X#;>>>;:;#$;::::::::::::::::::,<kkllk,:#$<h!~z-,-&::$,########$$$$#:,>$$ ",
"      #,c>$#XX....X@@@@o=+o@X##;$;;;#$:;::;::;;##XXXX######::>,,<<<;#:<jvz&&&$$$###########$$$#$><,$ ",
"     ##>c>$#XX....XXX@@o=&ooX##;$;;#$;:;::;$$####XXXX#########:,<<<,:#:<gk&XX###X##:#######$$$#$:,>$$",
"     #,c>$##XX.....@XX@@==&+o@X$###$::::$$$#@@@@@@@.X###########:,lk,:#;:>XXXXXXX###########$$$#$><,$",
"     #>c>$#XXX.....@@X@@+-=&++@#$$$:::$#@@@@@@@@@@@.X############::<l<,:;;#XXXXX############$$$#$:,>$",
"    ##>c>$#XXX.....@@@@@@-==&+@#$$:::$@@@@@@@@@@@@@.X##############:><kkk,#XXXXX##$##########$$#$:,>$",
"    #>c>$##XXX.....@@@@@@+-=&+@$$;::#@@@@@@@@@@@@@@.X###############;:<lcckXXXX##############$$$#$>l>",
"    #>c>$##XXX.....@@X@@X@--+@$$$::@@@@@@@@@@@@@@@@.X#$##############;:<cmNkXXX###$##########$$$#$><>",
"    #>c>$##XXX.....@@@@XX@+++$$$$:#@@@@@@@@@@@@@@@@.X#$#####$#########;:lmNnXX#####$#######:#$$$#$:,>",
"    #>c>####XXX....@@@@@@@@++$$::#@@@@@@@@@@@@@@@...X#######$$$#$######;:zmm:#######$#########$$##:,>",
"    >c>$###XXXX....@@@@@@@@$$$:##@@@@@@@@@@@@@@@@...X#########$#########;,xmk###$###$:######:#$$###>c",
"    >c>$##XXXXX....@@@@@@@$$$$:#@@@@@@@@@@@@@@@@@...X#########$##$#$$####;xml###$$###:########$$$##>l",
"    >c>$##XXXXX....@@@@X@@$$$:#@@@@@@@@@@@@@@@@@@...X###############$$###;,xc>#######$########$$$##><",
"    >c>$##XXXXX....@X@@@@@$$:#@@@@@@@@@@@@@@@@@@@.X.X##$$##$###$#$##$######kck###$###$:##:####$$$##:<",
"    >c>$##XXXXX....@X@@@@;$$#@@@@@@@@@@@@@@@@@@@@.X.:M_####$$#######$#$#$##;ck###$###$########$$$##:,",
"    >c>$##XXXXX.....X@@@@$$:#@@@@@@@@@@@@@@@@@@..XX$#,m_###################;kx#######$::#######$$##:,",
"    >c>##XXXXXXX....@@@@;$$#@@@@@@@@@@@@@@@@@@@..XX$#:,N##########$#########;x>###########:####$$##:,",
"    >c>##XXXXXXXX...@@@@$$:#@@@@@@@@@@@@@@@@@@@..XX###:m##########$$########;kk################$$##:,",
"    >c>##XXXXXXXX...@@@@$$#@@@@@@@@@@@@@@@@@@@@@.XX####c###########$##$######;k######$#########$$##:,",
"    >c>##XXXXXXXX...@@@@$$#@@@@@@@@@@@@@@@@@@@@@@..####k#####################;k#######.##:#####$$##:,"
};
