/* XPM */
static char *_694044fe2304f08d1fe1bfbe13713c5[] = {
/* columns rows colors chars-per-pixel */
"43 69 99 2 ",
"   c black",
".  c #1B1F00",
"X  c #1E150A",
"o  c #1F170B",
"O  c #25130A",
"+  c #13230B",
"@  c #17330F",
"#  c #282B07",
"$  c #2B230F",
"%  c #2F330B",
"&  c #2C2017",
"*  c #362616",
"=  c #332B13",
"-  c #3F2F17",
";  c #2C321F",
":  c #222222",
">  c #2C2C2C",
",  c #2F2F2F",
"<  c #382724",
"1  c #373F27",
"2  c #2F2F31",
"3  c #363736",
"4  c gray23",
"5  c #51000C",
"6  c #6B0F0F",
"7  c #771717",
"8  c #7F1B1B",
"9  c #422B1B",
"0  c #43331B",
"q  c #4B371B",
"w  c #533F1F",
"e  c #432F2A",
"r  c #4A3429",
"t  c #523E2E",
"y  c #533F2F",
"u  c #3F472B",
"i  c #5F4323",
"p  c #474F33",
"a  c #5F4B37",
"s  c #5B473A",
"d  c #53573B",
"f  c #6B4727",
"g  c #674B26",
"h  c #774F2B",
"j  c #7F532F",
"k  c #6F4C30",
"l  c #7A5D36",
"z  c #454645",
"x  c gray34",
"c  c #5B5B5B",
"v  c #6F5743",
"b  c #6B5646",
"n  c #5B6347",
"m  c #676B4F",
"M  c #77634F",
"N  c #6F7357",
"B  c #7B7F63",
"V  c #727272",
"C  c gray50",
"Z  c #880015",
"A  c #8B2323",
"S  c #8F2B2B",
"D  c #972F2F",
"F  c #9B3333",
"G  c #A33B3B",
"H  c #A73F3F",
"J  c #874307",
"K  c #875733",
"L  c #8F5F37",
"P  c #896B3E",
"I  c #9B633B",
"U  c #A36B3F",
"Y  c #D75F0B",
"T  c #F37317",
"R  c #AF4747",
"E  c #B34F4F",
"W  c #BB5757",
"Q  c #BC5858",
"!  c #89674D",
"~  c #96764B",
"^  c #8F7753",
"/  c #9B735F",
"(  c #AB6F43",
")  c #B37347",
"_  c #BF7B4B",
"`  c #A37B67",
"'  c #CB6B6B",
"]  c #D47474",
"[  c #A38154",
"{  c #9E8465",
"}  c #AB8B76",
"|  c #AC987C",
" . c #CF8353",
".. c #D78B5B",
"X. c #DF9363",
"o. c #F7AB7B",
"O. c #B79A85",
"+. c #BFA78F",
"@. c #DF8787",
/* pixels */
"                                                                                      ",
"                                                                                      ",
"                                                                                      ",
"                                                                                      ",
"                                                                                      ",
"                                                                                      ",
"                                                                                      ",
"                                                                                      ",
"                                                                                      ",
"                                                                                      ",
"                                                                                      ",
"                                                                                      ",
"                                                                                      ",
"                                                                                      ",
"                                                                                      ",
"                                                                                      ",
"                                                                                      ",
"                                                                                      ",
"                                                                                      ",
"                                    U 6 A = A 6 U                                     ",
"                                c o.i 6 Z F Z 6 i o.x                                 ",
"                            x x z  .6 c C x V 6 U  .z x x                             ",
"                    { } | | | b 3 > Y F 6 F 6 F Y : 3 b O.} | } {                     ",
"                ^ { O.{ { +.O.} b z > J Y T Y J 2 z b } +.+.{ { O.{ ~                 ",
"              ^ ! } | { { { | { { { Q 0 O X # 0 Q { { [ | { { { } | ! ^               ",
"              b { | | | ` { { | @.{ ] E r 0 H E ] { @.| { { { | | } { b               ",
"              i M ^ / { { b { ] } ] { ] E F E ] { ] | ] { l { { { ^ M i               ",
"              * i s l b l * k ! { ' ] E R F E E ] ' { ! s * b b l s i &               ",
"                  < < r < & X b ! Q Q G H S H G W W ! b . * e < < <                   ",
"                  _ L L i g & X s b k S 0 8 t S s l s X & q f g j j (                 ",
"                _  .X...L i X & * & 6 6 6 8 6 9 6 * % X & - i L ......(               ",
"              (  .X.o.o.L i b & X 6 6 7 F H F 7 0 6 X & s $ i L ..o.o.(               ",
"              (  .o.o..._ L b M 6 s i M F W | M 7 8 6 b b $ q i ..o.o.(               ",
"              L ..U U _ L i ! { S t b ! H F { ! b k S W s $ - i L .._ K               ",
"              j j i i j i q b { S 8 t b { F W b t 0 S s b + - q f j h h N             ",
"            L L U L L i p i   l W S 0 i s 8 A i 0 0 M s   + q q q f h n N             ",
"            L U ..( L i     u b M W W 0 t 6 6 0 0 P s l 1   @ 1 p d n d d             ",
"            U ( ....( i     ; m l { ! M ! M 6 M Q { m 1 ;     q h U ) ( I j           ",
"            j I ( ( L i   ; > 1 1 p d 1 B B B u p 1 1 > p p   q i L ( ..( j           ",
"            6 8 L L j i p d B d p p u > d d d > 1 p p d B d N i q h L ..( L           ",
"            8 ( U 8 6 N p d B p 1 2 > 2 , , , > 2 > u p B 1 p   q i L _ ( S           ",
"            S A E A 7 S 1 1 ; - f f D A 7 0 0 t t t t 0 0 ; p     i L ] ( S           ",
"          S 6 7 S 7 S E Q 1 0 0 - 7 7 7 0 = t a a a t 0 0 0 1       K ] E S           ",
"          8 F 8 8 6 S p ] 0 0 v v = = = = 0 0 t a s t s 0 s 0       ] E S E S         ",
"        E 6 E 6 F 6 F     s t t 0 t 0 X X 0 0 0 a A t A 0 a t       6 6 5 E S         ",
"        ]   Q   Q   Q     t 0 0 A D 0 X o 0 i D H H D 0 0 a t       6 5 8 S H         ",
"            ]   ]   ]     0 0 s A 8 = = = 0 = 0 H W E F 0 a 0       8 5 H S F         ",
"                          = 0 - 7 6 0 = 0 s A t H E H H t 0 0         8 S F           ",
"                          = = A 0 6 0 = t r s D H D D D t 0           6 F             ",
"                          = A A 0 0 0 = 0 a F R S D v D 0 0                           ",
"                            = A 0 0 = = = F M b i b M a 0                             ",
"                            = $ 0 0 = = 0 i s m N m v 0 i                             ",
"                            = = = = = = = n n B B B m n d                             ",
"                              = = = = = = p n m m m R F d                             ",
"                              = = = = = = s p d d d p =                               ",
"                                = = = 0 = d 0 0 0 = 0 p m                             ",
"                                    t = 0 p m N B B N m 1                             ",
"                                      0 0 n p p p p p u p                             ",
"                                      = 0 p n p p d n m p                             ",
"                                      = = 1 i f n n i n d                             ",
"                                      4 = = p S m E n i                               ",
"                                    0 0 = = 7 G G m f 7                               ",
"                                    0 0 = = - S E E S q                               ",
"                                    0 0 = - - q w q - -                               ",
"                                      0 = - f G G G F q                               ",
"                                          q F H R H S q                               ",
"                                          f S F H F S i                               ",
"                                          4 q S S S q 4                               ",
"                                            2 2 $ $ 2 ,                               "
};
