/* XPM */
static char *db12385ad9c641e0f9bdfc5fc8f211f6[] = {
/* columns rows colors chars-per-pixel */
"43 69 111 2 ",
"   c black",
".  c #170F07",
"X  c #1B1F00",
"o  c #1E150A",
"O  c #1F170B",
"+  c #25130A",
"@  c #13230B",
"#  c #17330F",
"$  c #282B07",
"%  c #2B230F",
"&  c #2F330B",
"*  c #2C2017",
"=  c #362616",
"-  c #332B13",
";  c #3F2F17",
":  c #2C321F",
">  c #222222",
",  c #232323",
"<  c #272727",
"1  c #2C2C2C",
"2  c #2F2F2F",
"3  c #382724",
"4  c #373F27",
"5  c #2F2F31",
"6  c #363736",
"7  c gray23",
"8  c #530707",
"9  c #5B0707",
"0  c #5F0707",
"q  c #51000C",
"w  c #670B0B",
"e  c #6B0F0F",
"r  c #731313",
"t  c #771717",
"y  c #7F1B1B",
"u  c #422B1B",
"i  c #43331B",
"p  c #4B371B",
"a  c #533F1F",
"s  c #432F2A",
"d  c #4A3429",
"f  c #523E2E",
"g  c #533F2F",
"h  c #3F472B",
"j  c #5F4323",
"k  c #474F33",
"l  c #5F4B37",
"z  c #5B473A",
"x  c #53573B",
"c  c #6B4727",
"v  c #674B26",
"b  c #774F2B",
"n  c #7F532F",
"m  c #6F4C30",
"M  c #7A5D36",
"N  c #434343",
"B  c #454645",
"V  c gray34",
"C  c #5B5B5B",
"Z  c #6F5743",
"A  c #6B5646",
"S  c #5B6347",
"D  c #676B4F",
"F  c #77634F",
"G  c #6F7357",
"H  c #7B7F63",
"J  c #727272",
"K  c gray50",
"L  c #880015",
"P  c #831F1F",
"I  c #8B2323",
"U  c #8F2B2B",
"Y  c #972F2F",
"T  c #9B3333",
"R  c #A53D3D",
"E  c #A73F3F",
"W  c #874307",
"Q  c #875733",
"!  c #8F5F37",
"~  c #896B3E",
"^  c #9B633B",
"/  c #A36B3F",
"(  c #D75F0B",
")  c #F37317",
"_  c #AF4747",
"`  c #B34F4F",
"'  c #BB5757",
"]  c #BC5858",
"[  c #89674D",
"{  c #836B4B",
"}  c #96764B",
"|  c #8F7753",
" . c #8B735B",
".. c #9B735F",
"X. c #AB6F43",
"o. c #BF7B4B",
"O. c #A37B67",
"+. c #CB6B6B",
"@. c #D47474",
"#. c #A38154",
"$. c #9E8465",
"%. c #A78F77",
"&. c #AB8B76",
"*. c #AC987C",
"=. c #CF8353",
"-. c #D78B5B",
";. c #DF9363",
":. c #F7AB7B",
">. c #B79A85",
",. c #BFA78F",
"<. c #DF8787",
/* pixels */
"                                                                                      ",
"                                                                                      ",
"                                                                                      ",
"                                                                                      ",
"                                                                                      ",
"                                                                                      ",
"                                                                                      ",
"                                                                                      ",
"                                                                                      ",
"                                                                                      ",
"                                                                                      ",
"                                                                                      ",
"                                                                                      ",
"                                                                                      ",
"                                                                                      ",
"                                                                                      ",
"                                                                                      ",
"                                                                                      ",
"                                                                                      ",
"                                                                                      ",
"                                          X.w I - I e X.                              ",
"                                      C :.j e L T L e j :.V                           ",
"                                  V V B =.e C K V J e / =.B V V                       ",
"                          $.&.*.*.*.A 6 2 ( T e T e T ( > 6 A >.&.*.&.$.              ",
"                      | $.>.$.$.,.>.&.A N 1 W ( ) ( W 2 N A &.,.,.$.$.>.$.}           ",
"                    | [ &.*.$.$.$.*.$.$.$.' i + o $ i ' $.$.#.*.$.$.$.&.*.[ |         ",
"                    A $.*.*.*.O.$.$.*.<.$.@.` d i E ` @.$.<.*.$.$.$.*.*.&.$.A         ",
"                    j F | ..$.$.A $.@.&.@.$.@.` T ` @.$.@.*.@.$.M $.$.$.| F j         ",
"                    = j z M A M = m [ $.+.@.` _ T ` ` @.+.$.[ z = A A M z j *         ",
"                        3 3 d 3 * o A [ ] ' E E U E R ' ' [ A X = s 3 3 3 v           ",
"                        o.! ! j v * o z A m U i y f U z M z o * p c v v n n           ",
"                      o.=.;.-.! j o * = * e e e y e u e = & o * ; j ! -.-.-.X.        ",
"                    X.=.;.:.:.! j A * o e e t T E T t i e o * z % j ! -.:.:.X.        ",
"                    X.=.-.-.-.X.! A F e z j F T ' *.F t y e A A % p j -.:.:.X.        ",
"                    ! ! X.-.-.! j [ $.U f A [ E T $.[ A m U ' z % u j ! -.o.Q         ",
"                  ! :.:.-.X.! j k A $.U t f A $.T ' A f i U z A @ ; p c n b b G       ",
"                  / :.-.-.! j k     M ' U i j z y I j i i F z   @ p i p c b S G       ",
"                n X.-.-.X.! j     h A F ' ' i f e e i i ~ z M 4   # h k x S x x       ",
"                n ^ X.X.! j       : D M $.[ F [ F e F ' $.D h :   b b b b b b b       ",
"                e e ! ! n j     : 2 4 4 k x 4 H H H 4 k 4 4 2 k k p / / -.-.^ n       ",
"                y y y n y     k x H x k k 4 5 x x x 2 4 k k x H x p b ! / -.X.!       ",
"                T I T I t e G k x H k h 5 2 2 2 2 2 2 2 2 4 k H h j p ! X.-.X.!       ",
"              y ] e ] e ] U e 4 4 p p I I I P 1 h k N %.{ l f Z Z f p b X.o.X.U       ",
"              e I e ` e @.I ] @.N e r r r r k 4 2 o Z { f l f i f 1 x j ! @.X.U       ",
"              I @.  @.  k k k 7 l l Y e r Y o o o l l f f i i i i i 2 2 Q @.` U       ",
"              @.            - i l { l A F { f o - z i i i i i - i i -   @.` U ` U     ",
"                            - i z f Z _ ` Q o o o z f i i i - - - t -   e e q ` U     ",
"                            - i i f Y Q c = i O O i i i 0 - 8 - 0 i -   e q y U E     ",
"                            - - i i T j ; % z - - - i - - 8 8 8 9 9 -   P q E U T     ",
"                              - o U f Y y j i - - f f i e 0 9 0 0 .       y U T       ",
"                                i U I y - ; - i - z i i e e 9 w 8 8       e T         ",
"                              - w y - i - * - - - g z I I t w w w i                   ",
"                              w r y i - % % - i - j ; t e i w y w -                   ",
"                                9 i i i * - f - i  .e i i w w w -                     ",
"                                  O j g ; i O - O   i x D H D x 5                     ",
"                                  - k h h h - - O   i k k k k h 5                     ",
"                                  x k h h i - - O   , i k h h P ,                     ",
"                                    P h ; - - O O   5 k - - - - h                     ",
"                                      ; - O o - o   - h k k k x <                     ",
"                                        p ; - ; -   - h 4 - - - <                     ",
"                                          - - ; ;   - k 4 4 - e <                     ",
"                                          ; e - i O   2 y ; ; 4 r                     ",
"                                          % ; - - O   h ; y e ;                       ",
"                                        ; t e - - O     4 U U r                       ",
"                                        ; t e - - h   h i i i i U                     ",
"                                        O e - - O     i a E E U a                     ",
"                                        - i - - O     i U E E U a                     ",
"                                          O O O       a v U U U a                     ",
"                                                      5 j p u a 2                     ",
"                                                        , 2 2 5                       "
};
